%TF.GenerationSoftware,KiCad,Pcbnew,8.0.7*%
%TF.CreationDate,2025-01-19T09:45:11-05:00*%
%TF.ProjectId,drone_ting,64726f6e-655f-4746-996e-672e6b696361,rev?*%
%TF.SameCoordinates,Original*%
%TF.FileFunction,Copper,L1,Top*%
%TF.FilePolarity,Positive*%
%FSLAX46Y46*%
G04 Gerber Fmt 4.6, Leading zero omitted, Abs format (unit mm)*
G04 Created by KiCad (PCBNEW 8.0.7) date 2025-01-19 09:45:11*
%MOMM*%
%LPD*%
G01*
G04 APERTURE LIST*
%TA.AperFunction,ComponentPad*%
%ADD10R,1.800000X1.800000*%
%TD*%
%TA.AperFunction,ComponentPad*%
%ADD11C,1.800000*%
%TD*%
%TA.AperFunction,ComponentPad*%
%ADD12C,2.000000*%
%TD*%
%TA.AperFunction,ComponentPad*%
%ADD13C,1.300000*%
%TD*%
%TA.AperFunction,ComponentPad*%
%ADD14C,10.000000*%
%TD*%
%TA.AperFunction,ComponentPad*%
%ADD15C,1.600000*%
%TD*%
%TA.AperFunction,ComponentPad*%
%ADD16O,1.600000X1.600000*%
%TD*%
%TA.AperFunction,ComponentPad*%
%ADD17C,1.000000*%
%TD*%
%TA.AperFunction,ComponentPad*%
%ADD18R,1.600000X1.600000*%
%TD*%
%TA.AperFunction,ViaPad*%
%ADD19C,0.600000*%
%TD*%
%TA.AperFunction,Conductor*%
%ADD20C,0.400000*%
%TD*%
G04 APERTURE END LIST*
D10*
%TO.P,D2,1,K*%
%TO.N,GND*%
X53960000Y-99000000D03*
D11*
%TO.P,D2,2,A*%
%TO.N,Net-(D2-A)*%
X56500000Y-99000000D03*
%TD*%
D10*
%TO.P,D22,1,K*%
%TO.N,GND*%
X174460000Y-99000000D03*
D11*
%TO.P,D22,2,A*%
%TO.N,Net-(D22-A)*%
X177000000Y-99000000D03*
%TD*%
D12*
%TO.P,REF\u002A\u002A,1*%
%TO.N,GND*%
X207000000Y-111000000D03*
%TD*%
D13*
%TO.P,RV7,1,1*%
%TO.N,+12V*%
X76500000Y-47500000D03*
%TO.P,RV7,2,2*%
%TO.N,Net-(R10-Pad1)*%
X79000000Y-47500000D03*
%TO.P,RV7,3,3*%
%TO.N,Net-(R13-Pad2)*%
X81500000Y-47500000D03*
D12*
%TO.P,RV7,*%
%TO.N,*%
X74200000Y-40000000D03*
X83800000Y-40000000D03*
%TD*%
D13*
%TO.P,RV13,1,1*%
%TO.N,+12V*%
X106500000Y-47500000D03*
%TO.P,RV13,2,2*%
%TO.N,Net-(R19-Pad1)*%
X109000000Y-47500000D03*
%TO.P,RV13,3,3*%
%TO.N,Net-(R21-Pad2)*%
X111500000Y-47500000D03*
D12*
%TO.P,RV13,*%
%TO.N,*%
X104200000Y-40000000D03*
X113800000Y-40000000D03*
%TD*%
D13*
%TO.P,RV24,1,1*%
%TO.N,Net-(D21-A)*%
X167000000Y-71000000D03*
%TO.P,RV24,2,2*%
%TO.N,Net-(R38-Pad1)*%
X169500000Y-71000000D03*
%TO.P,RV24,3,3*%
%TO.N,GND*%
X172000000Y-71000000D03*
D12*
%TO.P,RV24,*%
%TO.N,*%
X164700000Y-63500000D03*
X174300000Y-63500000D03*
%TD*%
D13*
%TO.P,RV18,1,1*%
%TO.N,+12V*%
X137500000Y-94500000D03*
%TO.P,RV18,2,2*%
%TO.N,Net-(R27-Pad1)*%
X140000000Y-94500000D03*
%TO.P,RV18,3,3*%
%TO.N,Net-(R29-Pad2)*%
X142500000Y-94500000D03*
D12*
%TO.P,RV18,*%
%TO.N,*%
X135200000Y-87000000D03*
X144800000Y-87000000D03*
%TD*%
D13*
%TO.P,RV16,1,1*%
%TO.N,Net-(D14-A)*%
X106500000Y-117500000D03*
%TO.P,RV16,2,2*%
%TO.N,Net-(R24-Pad1)*%
X109000000Y-117500000D03*
%TO.P,RV16,3,3*%
%TO.N,GND*%
X111500000Y-117500000D03*
D12*
%TO.P,RV16,*%
%TO.N,*%
X104200000Y-110000000D03*
X113800000Y-110000000D03*
%TD*%
D13*
%TO.P,RV15,1,1*%
%TO.N,Net-(D13-A)*%
X106500000Y-71000000D03*
%TO.P,RV15,2,2*%
%TO.N,Net-(R23-Pad1)*%
X109000000Y-71000000D03*
%TO.P,RV15,3,3*%
%TO.N,GND*%
X111500000Y-71000000D03*
D12*
%TO.P,RV15,*%
%TO.N,*%
X104200000Y-63500000D03*
X113800000Y-63500000D03*
%TD*%
D10*
%TO.P,D7,1,K*%
%TO.N,GND*%
X83960000Y-52000000D03*
D11*
%TO.P,D7,2,A*%
%TO.N,Net-(D7-A)*%
X86500000Y-52000000D03*
%TD*%
D13*
%TO.P,RV14,1,1*%
%TO.N,+12V*%
X106500000Y-94500000D03*
%TO.P,RV14,2,2*%
%TO.N,Net-(R20-Pad1)*%
X109000000Y-94500000D03*
%TO.P,RV14,3,3*%
%TO.N,Net-(R22-Pad2)*%
X111500000Y-94500000D03*
D12*
%TO.P,RV14,*%
%TO.N,*%
X104200000Y-87000000D03*
X113800000Y-87000000D03*
%TD*%
D13*
%TO.P,RV17,1,1*%
%TO.N,+12V*%
X137500000Y-47500000D03*
%TO.P,RV17,2,2*%
%TO.N,Net-(R26-Pad1)*%
X140000000Y-47500000D03*
%TO.P,RV17,3,3*%
%TO.N,Net-(R28-Pad2)*%
X142500000Y-47500000D03*
D12*
%TO.P,RV17,*%
%TO.N,*%
X135200000Y-40000000D03*
X144800000Y-40000000D03*
%TD*%
D10*
%TO.P,D1,1,K*%
%TO.N,GND*%
X53728872Y-52000000D03*
D11*
%TO.P,D1,2,A*%
%TO.N,Net-(D1-A)*%
X56268872Y-52000000D03*
%TD*%
D12*
%TO.P,REF\u002A\u002A,1*%
%TO.N,GND*%
X205500000Y-64500000D03*
%TD*%
D10*
%TO.P,D13,1,K*%
%TO.N,GND*%
X113960000Y-52000000D03*
D11*
%TO.P,D13,2,A*%
%TO.N,Net-(D13-A)*%
X116500000Y-52000000D03*
%TD*%
D13*
%TO.P,RV2,1,1*%
%TO.N,+12V*%
X46500000Y-94500000D03*
%TO.P,RV2,2,2*%
%TO.N,Net-(R2-Pad1)*%
X49000000Y-94500000D03*
%TO.P,RV2,3,3*%
%TO.N,Net-(R5-Pad2)*%
X51500000Y-94500000D03*
D12*
%TO.P,RV2,*%
%TO.N,*%
X44200000Y-87000000D03*
X53800000Y-87000000D03*
%TD*%
D10*
%TO.P,D14,1,K*%
%TO.N,GND*%
X113960000Y-99000000D03*
D11*
%TO.P,D14,2,A*%
%TO.N,Net-(D14-A)*%
X116500000Y-99000000D03*
%TD*%
D12*
%TO.P,REF\u002A\u002A,1*%
%TO.N,Net-(C15-Pad2)*%
X196500000Y-71500000D03*
%TD*%
D10*
%TO.P,D21,1,K*%
%TO.N,GND*%
X174500000Y-52000000D03*
D11*
%TO.P,D21,2,A*%
%TO.N,Net-(D21-A)*%
X177040000Y-52000000D03*
%TD*%
D13*
%TO.P,RV10,1,1*%
%TO.N,Net-(D7-A)*%
X76500000Y-71000000D03*
%TO.P,RV10,2,2*%
%TO.N,Net-(R16-Pad1)*%
X79000000Y-71000000D03*
%TO.P,RV10,3,3*%
%TO.N,GND*%
X81500000Y-71000000D03*
D12*
%TO.P,RV10,*%
%TO.N,*%
X74200000Y-63500000D03*
X83800000Y-63500000D03*
%TD*%
D10*
%TO.P,D8,1,K*%
%TO.N,GND*%
X83960000Y-99000000D03*
D11*
%TO.P,D8,2,A*%
%TO.N,Net-(D8-A)*%
X86500000Y-99000000D03*
%TD*%
D13*
%TO.P,RV8,1,1*%
%TO.N,+12V*%
X76500000Y-94500000D03*
%TO.P,RV8,2,2*%
%TO.N,Net-(R11-Pad1)*%
X79000000Y-94500000D03*
%TO.P,RV8,3,3*%
%TO.N,Net-(R14-Pad2)*%
X81500000Y-94500000D03*
D12*
%TO.P,RV8,*%
%TO.N,*%
X74200000Y-87000000D03*
X83800000Y-87000000D03*
%TD*%
%TO.P,REF\u002A\u002A,1*%
%TO.N,+12V*%
X207000000Y-117000000D03*
%TD*%
D13*
%TO.P,RV23,1,1*%
%TO.N,Net-(C15-Pad1)*%
X198500000Y-59887500D03*
%TO.P,RV23,2,2*%
%TO.N,Net-(C16-Pad1)*%
X201000000Y-59887500D03*
%TO.P,RV23,3,3*%
X203500000Y-59887500D03*
D12*
%TO.P,RV23,*%
%TO.N,*%
X196200000Y-52387500D03*
X205800000Y-52387500D03*
%TD*%
D13*
%TO.P,RV22,1,1*%
%TO.N,+12V*%
X167000000Y-94500000D03*
%TO.P,RV22,2,2*%
%TO.N,Net-(R35-Pad1)*%
X169500000Y-94500000D03*
%TO.P,RV22,3,3*%
%TO.N,Net-(R37-Pad2)*%
X172000000Y-94500000D03*
D12*
%TO.P,RV22,*%
%TO.N,*%
X164700000Y-87000000D03*
X174300000Y-87000000D03*
%TD*%
D13*
%TO.P,RV20,1,1*%
%TO.N,Net-(D18-A)*%
X137500000Y-117500000D03*
%TO.P,RV20,2,2*%
%TO.N,Net-(R31-Pad1)*%
X140000000Y-117500000D03*
%TO.P,RV20,3,3*%
%TO.N,GND*%
X142500000Y-117500000D03*
D12*
%TO.P,RV20,*%
%TO.N,*%
X135200000Y-110000000D03*
X144800000Y-110000000D03*
%TD*%
D10*
%TO.P,D18,1,K*%
%TO.N,GND*%
X144960000Y-99000000D03*
D11*
%TO.P,D18,2,A*%
%TO.N,Net-(D18-A)*%
X147500000Y-99000000D03*
%TD*%
D14*
%TO.P,REF\u002A\u002A,1*%
%TO.N,N/C*%
X186000000Y-58000000D03*
%TD*%
D13*
%TO.P,RV25,1,1*%
%TO.N,Net-(D22-A)*%
X167000000Y-117500000D03*
%TO.P,RV25,2,2*%
%TO.N,Net-(R39-Pad1)*%
X169500000Y-117500000D03*
%TO.P,RV25,3,3*%
%TO.N,GND*%
X172000000Y-117500000D03*
D12*
%TO.P,RV25,*%
%TO.N,*%
X164700000Y-110000000D03*
X174300000Y-110000000D03*
%TD*%
D13*
%TO.P,RV11,1,1*%
%TO.N,Net-(D8-A)*%
X76500000Y-117500000D03*
%TO.P,RV11,2,2*%
%TO.N,Net-(R17-Pad1)*%
X79000000Y-117500000D03*
%TO.P,RV11,3,3*%
%TO.N,GND*%
X81500000Y-117500000D03*
D12*
%TO.P,RV11,*%
%TO.N,*%
X74200000Y-110000000D03*
X83800000Y-110000000D03*
%TD*%
D13*
%TO.P,RV4,1,1*%
%TO.N,Net-(D1-A)*%
X46500000Y-71000000D03*
%TO.P,RV4,2,2*%
%TO.N,Net-(R7-Pad1)*%
X49000000Y-71000000D03*
%TO.P,RV4,3,3*%
%TO.N,GND*%
X51500000Y-71000000D03*
D12*
%TO.P,RV4,*%
%TO.N,*%
X44200000Y-63500000D03*
X53800000Y-63500000D03*
%TD*%
D10*
%TO.P,D17,1,K*%
%TO.N,GND*%
X145000000Y-52000000D03*
D11*
%TO.P,D17,2,A*%
%TO.N,Net-(D17-A)*%
X147540000Y-52000000D03*
%TD*%
D13*
%TO.P,RV19,1,1*%
%TO.N,Net-(D17-A)*%
X137500000Y-71000000D03*
%TO.P,RV19,2,2*%
%TO.N,Net-(R30-Pad1)*%
X140000000Y-71000000D03*
%TO.P,RV19,3,3*%
%TO.N,GND*%
X142500000Y-71000000D03*
D12*
%TO.P,RV19,*%
%TO.N,*%
X135200000Y-63500000D03*
X144800000Y-63500000D03*
%TD*%
D13*
%TO.P,RV21,1,1*%
%TO.N,+12V*%
X167000000Y-47500000D03*
%TO.P,RV21,2,2*%
%TO.N,Net-(R34-Pad1)*%
X169500000Y-47500000D03*
%TO.P,RV21,3,3*%
%TO.N,Net-(R36-Pad2)*%
X172000000Y-47500000D03*
D12*
%TO.P,RV21,*%
%TO.N,*%
X164700000Y-40000000D03*
X174300000Y-40000000D03*
%TD*%
D13*
%TO.P,RV5,1,1*%
%TO.N,Net-(D2-A)*%
X46500000Y-117500000D03*
%TO.P,RV5,2,2*%
%TO.N,Net-(R8-Pad1)*%
X49000000Y-117500000D03*
%TO.P,RV5,3,3*%
%TO.N,GND*%
X51500000Y-117500000D03*
D12*
%TO.P,RV5,*%
%TO.N,*%
X44200000Y-110000000D03*
X53800000Y-110000000D03*
%TD*%
D13*
%TO.P,RV1,1,1*%
%TO.N,+12V*%
X46500000Y-47500000D03*
%TO.P,RV1,2,2*%
%TO.N,Net-(R1-Pad1)*%
X49000000Y-47500000D03*
%TO.P,RV1,3,3*%
%TO.N,Net-(R4-Pad2)*%
X51500000Y-47500000D03*
D12*
%TO.P,RV1,*%
%TO.N,*%
X44200000Y-40000000D03*
X53800000Y-40000000D03*
%TD*%
D15*
%TO.P,R23,1*%
%TO.N,Net-(R23-Pad1)*%
X119920000Y-63500000D03*
D16*
%TO.P,R23,2*%
%TO.N,Net-(D15-A)*%
X130080000Y-63500000D03*
%TD*%
D15*
%TO.P,R2,1*%
%TO.N,Net-(R2-Pad1)*%
X58500000Y-83500000D03*
D16*
%TO.P,R2,2*%
%TO.N,Net-(Q2-E)*%
X68660000Y-83500000D03*
%TD*%
D15*
%TO.P,R28,1*%
%TO.N,GND*%
X159580000Y-41000000D03*
D16*
%TO.P,R28,2*%
%TO.N,Net-(R28-Pad2)*%
X149420000Y-41000000D03*
%TD*%
D15*
%TO.P,R11,1*%
%TO.N,Net-(R11-Pad1)*%
X87840000Y-84000000D03*
D16*
%TO.P,R11,2*%
%TO.N,Net-(Q5-E)*%
X98000000Y-84000000D03*
%TD*%
D17*
%TO.P,Q11,1,E*%
%TO.N,Net-(Q11-E)*%
X183500000Y-48000000D03*
%TO.P,Q11,3,C*%
%TO.N,Net-(D21-A)*%
X181000000Y-48000000D03*
%TD*%
D18*
%TO.P,D23,1,K*%
%TO.N,Mix*%
X179690000Y-70500000D03*
D16*
%TO.P,D23,2,A*%
%TO.N,Net-(D23-A)*%
X187310000Y-70500000D03*
%TD*%
D18*
%TO.P,D16,1,K*%
%TO.N,Mix*%
X121380000Y-115500000D03*
D16*
%TO.P,D16,2,A*%
%TO.N,Net-(D16-A)*%
X129000000Y-115500000D03*
%TD*%
D15*
%TO.P,R22,1*%
%TO.N,GND*%
X128660000Y-88000000D03*
D16*
%TO.P,R22,2*%
%TO.N,Net-(R22-Pad2)*%
X118500000Y-88000000D03*
%TD*%
D15*
%TO.P,R37,1*%
%TO.N,GND*%
X188160000Y-87500000D03*
D16*
%TO.P,R37,2*%
%TO.N,Net-(R37-Pad2)*%
X178000000Y-87500000D03*
%TD*%
D17*
%TO.P,Q8,1,E*%
%TO.N,Net-(Q8-E)*%
X123500000Y-96000000D03*
%TO.P,Q8,3,C*%
%TO.N,Net-(D14-A)*%
X121000000Y-96000000D03*
%TD*%
D15*
%TO.P,R29,1*%
%TO.N,GND*%
X159660000Y-88000000D03*
D16*
%TO.P,R29,2*%
%TO.N,Net-(R29-Pad2)*%
X149500000Y-88000000D03*
%TD*%
D17*
%TO.P,Q7,1,E*%
%TO.N,Net-(Q7-E)*%
X124000000Y-48000000D03*
%TO.P,Q7,3,C*%
%TO.N,Net-(D13-A)*%
X121500000Y-48000000D03*
%TD*%
D15*
%TO.P,R31,1*%
%TO.N,Net-(R31-Pad1)*%
X148840000Y-111500000D03*
D16*
%TO.P,R31,2*%
%TO.N,Net-(D20-A)*%
X159000000Y-111500000D03*
%TD*%
D15*
%TO.P,R35,1*%
%TO.N,Net-(R35-Pad1)*%
X177840000Y-83500000D03*
D16*
%TO.P,R35,2*%
%TO.N,Net-(Q12-E)*%
X188000000Y-83500000D03*
%TD*%
D17*
%TO.P,Q2,1,E*%
%TO.N,Net-(Q2-E)*%
X63500000Y-94500000D03*
%TO.P,Q2,3,C*%
%TO.N,Net-(D2-A)*%
X61000000Y-94500000D03*
%TD*%
D15*
%TO.P,C16,1*%
%TO.N,Net-(C16-Pad1)*%
X206000000Y-69500000D03*
%TO.P,C16,2*%
%TO.N,GND*%
X206000000Y-72000000D03*
%TD*%
D18*
%TO.P,C9,1*%
%TO.N,+12V*%
X198500000Y-99000000D03*
D15*
%TO.P,C9,2*%
%TO.N,GND*%
X200500000Y-99000000D03*
%TD*%
%TO.P,R21,1*%
%TO.N,GND*%
X129000000Y-41000000D03*
D16*
%TO.P,R21,2*%
%TO.N,Net-(R21-Pad2)*%
X118840000Y-41000000D03*
%TD*%
D18*
%TO.P,C7,1*%
%TO.N,Net-(Q7-E)*%
X129000000Y-48000000D03*
D15*
%TO.P,C7,2*%
%TO.N,GND*%
X129000000Y-46000000D03*
%TD*%
D18*
%TO.P,C2,1*%
%TO.N,Net-(Q2-E)*%
X68500000Y-94500000D03*
D15*
%TO.P,C2,2*%
%TO.N,GND*%
X68500000Y-92500000D03*
%TD*%
%TO.P,R32,1*%
%TO.N,GND*%
X206500000Y-100660000D03*
D16*
%TO.P,R32,2*%
%TO.N,Mix*%
X206500000Y-90500000D03*
%TD*%
D17*
%TO.P,Q1,1,E*%
%TO.N,Net-(Q1-E)*%
X62500000Y-47500000D03*
%TO.P,Q1,3,C*%
%TO.N,Net-(D1-A)*%
X60000000Y-47500000D03*
%TD*%
D15*
%TO.P,R13,1*%
%TO.N,GND*%
X99000000Y-40500000D03*
D16*
%TO.P,R13,2*%
%TO.N,Net-(R13-Pad2)*%
X88840000Y-40500000D03*
%TD*%
D15*
%TO.P,R4,1*%
%TO.N,GND*%
X68660000Y-40500000D03*
D16*
%TO.P,R4,2*%
%TO.N,Net-(R4-Pad2)*%
X58500000Y-40500000D03*
%TD*%
D17*
%TO.P,Q12,1,E*%
%TO.N,Net-(Q12-E)*%
X183500000Y-95500000D03*
%TO.P,Q12,3,C*%
%TO.N,Net-(D22-A)*%
X181000000Y-95500000D03*
%TD*%
%TO.P,Q4,1,E*%
%TO.N,Net-(Q4-E)*%
X93500000Y-47500000D03*
%TO.P,Q4,3,C*%
%TO.N,Net-(D7-A)*%
X91000000Y-47500000D03*
%TD*%
D15*
%TO.P,R19,1*%
%TO.N,Net-(R19-Pad1)*%
X119000000Y-37000000D03*
D16*
%TO.P,R19,2*%
%TO.N,Net-(Q7-E)*%
X129160000Y-37000000D03*
%TD*%
D18*
%TO.P,C14,1*%
%TO.N,Net-(C14-Pad1)*%
X199500000Y-77500000D03*
D15*
%TO.P,C14,2*%
%TO.N,Net-(C14-Pad2)*%
X201500000Y-77500000D03*
%TD*%
D18*
%TO.P,D4,1,K*%
%TO.N,Mix*%
X61000000Y-67500000D03*
D16*
%TO.P,D4,2,A*%
%TO.N,Net-(D4-A)*%
X68620000Y-67500000D03*
%TD*%
D18*
%TO.P,D24,1,K*%
%TO.N,Mix*%
X180190000Y-115500000D03*
D16*
%TO.P,D24,2,A*%
%TO.N,Net-(D24-A)*%
X187810000Y-115500000D03*
%TD*%
D17*
%TO.P,Q5,1,E*%
%TO.N,Net-(Q5-E)*%
X93000000Y-95000000D03*
%TO.P,Q5,3,C*%
%TO.N,Net-(D8-A)*%
X90500000Y-95000000D03*
%TD*%
D15*
%TO.P,R36,1*%
%TO.N,GND*%
X188580000Y-41000000D03*
D16*
%TO.P,R36,2*%
%TO.N,Net-(R36-Pad2)*%
X178420000Y-41000000D03*
%TD*%
D18*
%TO.P,D20,1,K*%
%TO.N,Mix*%
X151380000Y-115500000D03*
D16*
%TO.P,D20,2,A*%
%TO.N,Net-(D20-A)*%
X159000000Y-115500000D03*
%TD*%
D18*
%TO.P,D10,1,K*%
%TO.N,Mix*%
X90380000Y-67500000D03*
D16*
%TO.P,D10,2,A*%
%TO.N,Net-(D10-A)*%
X98000000Y-67500000D03*
%TD*%
D18*
%TO.P,C1,1*%
%TO.N,Net-(Q1-E)*%
X68500000Y-47500000D03*
D15*
%TO.P,C1,2*%
%TO.N,GND*%
X68500000Y-45500000D03*
%TD*%
%TO.P,R24,1*%
%TO.N,Net-(R24-Pad1)*%
X118840000Y-111500000D03*
D16*
%TO.P,R24,2*%
%TO.N,Net-(D16-A)*%
X129000000Y-111500000D03*
%TD*%
D18*
%TO.P,D19,1,K*%
%TO.N,Mix*%
X152380000Y-68000000D03*
D16*
%TO.P,D19,2,A*%
%TO.N,Net-(D19-A)*%
X160000000Y-68000000D03*
%TD*%
D17*
%TO.P,Q9,1,E*%
%TO.N,Net-(Q9-E)*%
X154500000Y-47500000D03*
%TO.P,Q9,3,C*%
%TO.N,Net-(D17-A)*%
X152000000Y-47500000D03*
%TD*%
D15*
%TO.P,R10,1*%
%TO.N,Net-(R10-Pad1)*%
X89000000Y-37000000D03*
D16*
%TO.P,R10,2*%
%TO.N,Net-(Q4-E)*%
X99160000Y-37000000D03*
%TD*%
D18*
%TO.P,C8,1*%
%TO.N,Net-(Q8-E)*%
X128500000Y-96000000D03*
D15*
%TO.P,C8,2*%
%TO.N,GND*%
X128500000Y-94000000D03*
%TD*%
D18*
%TO.P,U1,1,GAIN*%
%TO.N,Net-(C14-Pad2)*%
X202000000Y-84000000D03*
D16*
%TO.P,U1,2,-*%
%TO.N,GND*%
X202000000Y-86540000D03*
%TO.P,U1,3,+*%
%TO.N,Mix*%
X202000000Y-89080000D03*
%TO.P,U1,4,GND*%
%TO.N,GND*%
X202000000Y-91620000D03*
%TO.P,U1,5*%
%TO.N,Net-(R33-Pad2)*%
X194380000Y-91620000D03*
%TO.P,U1,6,V+*%
%TO.N,+12V*%
X194380000Y-89080000D03*
%TO.P,U1,7,BYPASS*%
%TO.N,unconnected-(U1-BYPASS-Pad7)*%
X194380000Y-86540000D03*
%TO.P,U1,8,GAIN*%
%TO.N,Net-(C14-Pad1)*%
X194380000Y-84000000D03*
%TD*%
D17*
%TO.P,Q10,1,E*%
%TO.N,Net-(Q10-E)*%
X154500000Y-95000000D03*
%TO.P,Q10,3,C*%
%TO.N,Net-(D18-A)*%
X152000000Y-95000000D03*
%TD*%
D15*
%TO.P,R33,1*%
%TO.N,Net-(C15-Pad1)*%
X192000000Y-66000000D03*
D16*
%TO.P,R33,2*%
%TO.N,Net-(R33-Pad2)*%
X192000000Y-76160000D03*
%TD*%
D15*
%TO.P,R5,1*%
%TO.N,GND*%
X68660000Y-87500000D03*
D16*
%TO.P,R5,2*%
%TO.N,Net-(R5-Pad2)*%
X58500000Y-87500000D03*
%TD*%
D15*
%TO.P,R8,1*%
%TO.N,Net-(R8-Pad1)*%
X57340000Y-111500000D03*
D16*
%TO.P,R8,2*%
%TO.N,Net-(D5-A)*%
X67500000Y-111500000D03*
%TD*%
D18*
%TO.P,C5,1*%
%TO.N,Net-(Q5-E)*%
X98000000Y-95000000D03*
D15*
%TO.P,C5,2*%
%TO.N,GND*%
X98000000Y-93000000D03*
%TD*%
%TO.P,R25,1*%
%TO.N,+12V*%
X198500000Y-103420000D03*
D16*
%TO.P,R25,2*%
X198500000Y-113580000D03*
%TD*%
D15*
%TO.P,R34,1*%
%TO.N,Net-(R34-Pad1)*%
X178420000Y-37000000D03*
D16*
%TO.P,R34,2*%
%TO.N,Net-(Q11-E)*%
X188580000Y-37000000D03*
%TD*%
D15*
%TO.P,R27,1*%
%TO.N,Net-(R27-Pad1)*%
X149340000Y-84000000D03*
D16*
%TO.P,R27,2*%
%TO.N,Net-(Q10-E)*%
X159500000Y-84000000D03*
%TD*%
D18*
%TO.P,C15,1*%
%TO.N,Net-(C15-Pad1)*%
X198500000Y-66000000D03*
D15*
%TO.P,C15,2*%
%TO.N,Net-(C15-Pad2)*%
X200500000Y-66000000D03*
%TD*%
%TO.P,R38,1*%
%TO.N,Net-(R38-Pad1)*%
X177340000Y-66500000D03*
D16*
%TO.P,R38,2*%
%TO.N,Net-(D23-A)*%
X187500000Y-66500000D03*
%TD*%
D18*
%TO.P,C4,1*%
%TO.N,Net-(Q4-E)*%
X99000000Y-47500000D03*
D15*
%TO.P,C4,2*%
%TO.N,GND*%
X99000000Y-45500000D03*
%TD*%
D18*
%TO.P,C12,1*%
%TO.N,Net-(Q11-E)*%
X188500000Y-48000000D03*
D15*
%TO.P,C12,2*%
%TO.N,GND*%
X188500000Y-46000000D03*
%TD*%
%TO.P,R14,1*%
%TO.N,GND*%
X98080000Y-88000000D03*
D16*
%TO.P,R14,2*%
%TO.N,Net-(R14-Pad2)*%
X87920000Y-88000000D03*
%TD*%
D18*
%TO.P,D5,1,K*%
%TO.N,Mix*%
X59880000Y-115500000D03*
D16*
%TO.P,D5,2,A*%
%TO.N,Net-(D5-A)*%
X67500000Y-115500000D03*
%TD*%
D15*
%TO.P,R1,1*%
%TO.N,Net-(R1-Pad1)*%
X58500000Y-36500000D03*
D16*
%TO.P,R1,2*%
%TO.N,Net-(Q1-E)*%
X68660000Y-36500000D03*
%TD*%
D15*
%TO.P,R7,1*%
%TO.N,Net-(R7-Pad1)*%
X58420000Y-63500000D03*
D16*
%TO.P,R7,2*%
%TO.N,Net-(D4-A)*%
X68580000Y-63500000D03*
%TD*%
D15*
%TO.P,R16,1*%
%TO.N,Net-(R16-Pad1)*%
X88000000Y-63500000D03*
D16*
%TO.P,R16,2*%
%TO.N,Net-(D10-A)*%
X98160000Y-63500000D03*
%TD*%
D15*
%TO.P,R30,1*%
%TO.N,Net-(R30-Pad1)*%
X150000000Y-64000000D03*
D16*
%TO.P,R30,2*%
%TO.N,Net-(D19-A)*%
X160160000Y-64000000D03*
%TD*%
D18*
%TO.P,D11,1,K*%
%TO.N,Mix*%
X91380000Y-115500000D03*
D16*
%TO.P,D11,2,A*%
%TO.N,Net-(D11-A)*%
X99000000Y-115500000D03*
%TD*%
D15*
%TO.P,R17,1*%
%TO.N,Net-(R17-Pad1)*%
X88840000Y-111500000D03*
D16*
%TO.P,R17,2*%
%TO.N,Net-(D11-A)*%
X99000000Y-111500000D03*
%TD*%
D15*
%TO.P,R26,1*%
%TO.N,Net-(R26-Pad1)*%
X149420000Y-37000000D03*
D16*
%TO.P,R26,2*%
%TO.N,Net-(Q9-E)*%
X159580000Y-37000000D03*
%TD*%
D18*
%TO.P,C11,1*%
%TO.N,Net-(Q10-E)*%
X159500000Y-95000000D03*
D15*
%TO.P,C11,2*%
%TO.N,GND*%
X159500000Y-93000000D03*
%TD*%
D18*
%TO.P,C13,1*%
%TO.N,Net-(Q12-E)*%
X188000000Y-95500000D03*
D15*
%TO.P,C13,2*%
%TO.N,GND*%
X188000000Y-93500000D03*
%TD*%
%TO.P,R39,1*%
%TO.N,Net-(R39-Pad1)*%
X177840000Y-112000000D03*
D16*
%TO.P,R39,2*%
%TO.N,Net-(D24-A)*%
X188000000Y-112000000D03*
%TD*%
D15*
%TO.P,R20,1*%
%TO.N,Net-(R20-Pad1)*%
X118340000Y-84000000D03*
D16*
%TO.P,R20,2*%
%TO.N,Net-(Q8-E)*%
X128500000Y-84000000D03*
%TD*%
D18*
%TO.P,D15,1,K*%
%TO.N,Mix*%
X122380000Y-67000000D03*
D16*
%TO.P,D15,2,A*%
%TO.N,Net-(D15-A)*%
X130000000Y-67000000D03*
%TD*%
D18*
%TO.P,C10,1*%
%TO.N,Net-(Q9-E)*%
X159500000Y-47500000D03*
D15*
%TO.P,C10,2*%
%TO.N,GND*%
X159500000Y-45500000D03*
%TD*%
D19*
%TO.N,Net-(D1-A)*%
X50000000Y-59500000D03*
%TO.N,+12V*%
X191000000Y-99000000D03*
%TO.N,GND*%
X107500000Y-109500000D03*
X139000000Y-100000000D03*
X168000000Y-99500000D03*
X75500000Y-98000000D03*
%TO.N,Net-(D2-A)*%
X50500000Y-111000000D03*
%TO.N,Mix*%
X208500000Y-79000000D03*
%TO.N,Net-(D7-A)*%
X80000000Y-59500000D03*
%TO.N,Net-(D8-A)*%
X80000000Y-112000000D03*
%TO.N,Net-(D13-A)*%
X110500000Y-59500000D03*
%TO.N,Net-(D14-A)*%
X110000000Y-112000000D03*
%TO.N,Net-(D17-A)*%
X141500000Y-59500000D03*
%TO.N,Net-(D18-A)*%
X141500000Y-113000000D03*
%TO.N,Net-(D21-A)*%
X170500000Y-59500000D03*
%TO.N,Net-(D22-A)*%
X170500000Y-112500000D03*
%TD*%
D20*
%TO.N,Net-(D1-A)*%
X46500000Y-63000000D02*
X46500000Y-71000000D01*
X50000000Y-59500000D02*
X46500000Y-63000000D01*
%TO.N,Net-(Q1-E)*%
X68500000Y-47500000D02*
X62500000Y-47500000D01*
%TO.N,+12V*%
X181500000Y-99000000D02*
X179000000Y-96500000D01*
X179000000Y-96500000D02*
X169000000Y-96500000D01*
X191000000Y-99000000D02*
X181500000Y-99000000D01*
X169000000Y-96500000D02*
X167000000Y-94500000D01*
%TO.N,GND*%
X148250000Y-76750000D02*
X159500000Y-88000000D01*
X209000000Y-94000000D02*
X209000000Y-86500000D01*
X142500000Y-71000000D02*
X148250000Y-76750000D01*
X98000000Y-93000000D02*
X107500000Y-102500000D01*
X161500000Y-93000000D02*
X168000000Y-99500000D01*
X204000000Y-99000000D02*
X209000000Y-94000000D01*
X159500000Y-93000000D02*
X161500000Y-93000000D01*
X209000000Y-86500000D02*
X209000000Y-85500000D01*
X107500000Y-102500000D02*
X107500000Y-109500000D01*
X208960000Y-86540000D02*
X209000000Y-86500000D01*
X200500000Y-99000000D02*
X204000000Y-99000000D01*
X166250000Y-76750000D02*
X148250000Y-76750000D01*
X128500000Y-94000000D02*
X133000000Y-94000000D01*
X204500000Y-81000000D02*
X195000000Y-81000000D01*
X172000000Y-71000000D02*
X166250000Y-76750000D01*
X159500000Y-88000000D02*
X159660000Y-88000000D01*
X133000000Y-94000000D02*
X139000000Y-100000000D01*
X191500000Y-84500000D02*
X191500000Y-90000000D01*
X68000000Y-87500000D02*
X68660000Y-87500000D01*
X68500000Y-92500000D02*
X70000000Y-92500000D01*
X209000000Y-85500000D02*
X204500000Y-81000000D01*
X191500000Y-90000000D02*
X188000000Y-93500000D01*
X51500000Y-71000000D02*
X68000000Y-87500000D01*
X202000000Y-86540000D02*
X208960000Y-86540000D01*
X195000000Y-81000000D02*
X191500000Y-84500000D01*
X70000000Y-92500000D02*
X75500000Y-98000000D01*
%TO.N,Net-(D2-A)*%
X50500000Y-111000000D02*
X46500000Y-115000000D01*
X46500000Y-115000000D02*
X46500000Y-117500000D01*
%TO.N,Net-(Q4-E)*%
X99000000Y-47500000D02*
X93500000Y-47500000D01*
%TO.N,Net-(Q7-E)*%
X124000000Y-48000000D02*
X129000000Y-48000000D01*
%TO.N,Net-(Q9-E)*%
X159500000Y-47500000D02*
X154500000Y-47500000D01*
%TO.N,Mix*%
X173500000Y-112000000D02*
X173500000Y-114000000D01*
X134000000Y-118000000D02*
X141500000Y-110500000D01*
X183690000Y-74500000D02*
X204000000Y-74500000D01*
X59880000Y-115120000D02*
X61500000Y-113500000D01*
X59880000Y-115500000D02*
X59880000Y-115120000D01*
X180190000Y-115500000D02*
X180190000Y-113310000D01*
X91380000Y-115500000D02*
X91380000Y-115880000D01*
X161950000Y-118550000D02*
X170500000Y-110000000D01*
X142500000Y-110500000D02*
X147500000Y-115500000D01*
X170500000Y-110000000D02*
X171500000Y-110000000D01*
X199500000Y-91580000D02*
X202000000Y-89080000D01*
X151380000Y-115500000D02*
X151380000Y-115880000D01*
X147500000Y-115500000D02*
X151380000Y-115500000D01*
X109500000Y-110000000D02*
X111500000Y-110000000D01*
X61500000Y-113500000D02*
X75500000Y-113500000D01*
X114500000Y-115500000D02*
X121380000Y-115500000D01*
X91380000Y-115880000D02*
X93500000Y-118000000D01*
X173500000Y-114000000D02*
X175000000Y-115500000D01*
X81000000Y-110500000D02*
X81500000Y-111000000D01*
X123880000Y-118000000D02*
X134000000Y-118000000D01*
X111500000Y-110000000D02*
X112000000Y-110500000D01*
X204000000Y-74500000D02*
X208500000Y-79000000D01*
X112000000Y-110500000D02*
X112000000Y-113000000D01*
X93500000Y-118000000D02*
X101500000Y-118000000D01*
X101500000Y-118000000D02*
X109500000Y-110000000D01*
X81500000Y-111000000D02*
X81500000Y-113000000D01*
X175000000Y-115500000D02*
X180190000Y-115500000D01*
X154050000Y-118550000D02*
X161950000Y-118550000D01*
X75500000Y-113500000D02*
X78500000Y-110500000D01*
X141500000Y-110500000D02*
X142500000Y-110500000D01*
X78500000Y-110500000D02*
X81000000Y-110500000D01*
X81500000Y-113000000D02*
X84000000Y-115500000D01*
X121380000Y-115500000D02*
X123880000Y-118000000D01*
X151380000Y-115880000D02*
X154050000Y-118550000D01*
X179690000Y-70500000D02*
X183690000Y-74500000D01*
X199500000Y-94000000D02*
X199500000Y-91580000D01*
X180190000Y-113310000D02*
X199500000Y-94000000D01*
X112000000Y-113000000D02*
X114500000Y-115500000D01*
X171500000Y-110000000D02*
X173500000Y-112000000D01*
X84000000Y-115500000D02*
X91380000Y-115500000D01*
%TO.N,Net-(D7-A)*%
X76500000Y-63000000D02*
X76500000Y-71000000D01*
X80000000Y-59500000D02*
X76500000Y-63000000D01*
%TO.N,Net-(D8-A)*%
X80000000Y-112000000D02*
X76500000Y-115500000D01*
X76500000Y-115500000D02*
X76500000Y-117500000D01*
%TO.N,Net-(D13-A)*%
X110500000Y-59500000D02*
X106500000Y-63500000D01*
X106500000Y-63500000D02*
X106500000Y-71000000D01*
%TO.N,Net-(D14-A)*%
X110000000Y-112000000D02*
X106500000Y-115500000D01*
X106500000Y-115500000D02*
X106500000Y-117500000D01*
%TO.N,Net-(D17-A)*%
X137500000Y-63500000D02*
X137500000Y-71000000D01*
X141500000Y-59500000D02*
X137500000Y-63500000D01*
%TO.N,Net-(D18-A)*%
X141500000Y-113500000D02*
X137500000Y-117500000D01*
X141500000Y-113000000D02*
X141500000Y-113500000D01*
%TO.N,Net-(D21-A)*%
X170500000Y-59500000D02*
X170500000Y-60500000D01*
X167000000Y-64000000D02*
X167000000Y-71000000D01*
X170500000Y-60500000D02*
X167000000Y-64000000D01*
%TO.N,Net-(D22-A)*%
X170500000Y-112500000D02*
X167000000Y-116000000D01*
X167000000Y-116000000D02*
X167000000Y-117500000D01*
%TD*%
M02*
