%TF.GenerationSoftware,KiCad,Pcbnew,8.0.7*%
%TF.CreationDate,2025-01-19T09:45:11-05:00*%
%TF.ProjectId,drone_ting,64726f6e-655f-4746-996e-672e6b696361,rev?*%
%TF.SameCoordinates,Original*%
%TF.FileFunction,Copper,L2,Bot*%
%TF.FilePolarity,Positive*%
%FSLAX46Y46*%
G04 Gerber Fmt 4.6, Leading zero omitted, Abs format (unit mm)*
G04 Created by KiCad (PCBNEW 8.0.7) date 2025-01-19 09:45:11*
%MOMM*%
%LPD*%
G01*
G04 APERTURE LIST*
%TA.AperFunction,ComponentPad*%
%ADD10R,1.800000X1.800000*%
%TD*%
%TA.AperFunction,ComponentPad*%
%ADD11C,1.800000*%
%TD*%
%TA.AperFunction,ComponentPad*%
%ADD12C,2.000000*%
%TD*%
%TA.AperFunction,ComponentPad*%
%ADD13C,1.300000*%
%TD*%
%TA.AperFunction,ComponentPad*%
%ADD14C,10.000000*%
%TD*%
%TA.AperFunction,ComponentPad*%
%ADD15C,1.600000*%
%TD*%
%TA.AperFunction,ComponentPad*%
%ADD16O,1.600000X1.600000*%
%TD*%
%TA.AperFunction,ComponentPad*%
%ADD17C,1.000000*%
%TD*%
%TA.AperFunction,ComponentPad*%
%ADD18R,1.600000X1.600000*%
%TD*%
%TA.AperFunction,ViaPad*%
%ADD19C,0.600000*%
%TD*%
%TA.AperFunction,Conductor*%
%ADD20C,0.400000*%
%TD*%
G04 APERTURE END LIST*
D10*
%TO.P,D2,1,K*%
%TO.N,GND*%
X53960000Y-99000000D03*
D11*
%TO.P,D2,2,A*%
%TO.N,Net-(D2-A)*%
X56500000Y-99000000D03*
%TD*%
D10*
%TO.P,D22,1,K*%
%TO.N,GND*%
X174460000Y-99000000D03*
D11*
%TO.P,D22,2,A*%
%TO.N,Net-(D22-A)*%
X177000000Y-99000000D03*
%TD*%
D12*
%TO.P,REF\u002A\u002A,1*%
%TO.N,GND*%
X207000000Y-111000000D03*
%TD*%
D13*
%TO.P,RV7,1,1*%
%TO.N,+12V*%
X76500000Y-47500000D03*
%TO.P,RV7,2,2*%
%TO.N,Net-(R10-Pad1)*%
X79000000Y-47500000D03*
%TO.P,RV7,3,3*%
%TO.N,Net-(R13-Pad2)*%
X81500000Y-47500000D03*
D12*
%TO.P,RV7,*%
%TO.N,*%
X74200000Y-40000000D03*
X83800000Y-40000000D03*
%TD*%
D13*
%TO.P,RV13,1,1*%
%TO.N,+12V*%
X106500000Y-47500000D03*
%TO.P,RV13,2,2*%
%TO.N,Net-(R19-Pad1)*%
X109000000Y-47500000D03*
%TO.P,RV13,3,3*%
%TO.N,Net-(R21-Pad2)*%
X111500000Y-47500000D03*
D12*
%TO.P,RV13,*%
%TO.N,*%
X104200000Y-40000000D03*
X113800000Y-40000000D03*
%TD*%
D13*
%TO.P,RV24,1,1*%
%TO.N,Net-(D21-A)*%
X167000000Y-71000000D03*
%TO.P,RV24,2,2*%
%TO.N,Net-(R38-Pad1)*%
X169500000Y-71000000D03*
%TO.P,RV24,3,3*%
%TO.N,GND*%
X172000000Y-71000000D03*
D12*
%TO.P,RV24,*%
%TO.N,*%
X164700000Y-63500000D03*
X174300000Y-63500000D03*
%TD*%
D13*
%TO.P,RV18,1,1*%
%TO.N,+12V*%
X137500000Y-94500000D03*
%TO.P,RV18,2,2*%
%TO.N,Net-(R27-Pad1)*%
X140000000Y-94500000D03*
%TO.P,RV18,3,3*%
%TO.N,Net-(R29-Pad2)*%
X142500000Y-94500000D03*
D12*
%TO.P,RV18,*%
%TO.N,*%
X135200000Y-87000000D03*
X144800000Y-87000000D03*
%TD*%
D13*
%TO.P,RV16,1,1*%
%TO.N,Net-(D14-A)*%
X106500000Y-117500000D03*
%TO.P,RV16,2,2*%
%TO.N,Net-(R24-Pad1)*%
X109000000Y-117500000D03*
%TO.P,RV16,3,3*%
%TO.N,GND*%
X111500000Y-117500000D03*
D12*
%TO.P,RV16,*%
%TO.N,*%
X104200000Y-110000000D03*
X113800000Y-110000000D03*
%TD*%
D13*
%TO.P,RV15,1,1*%
%TO.N,Net-(D13-A)*%
X106500000Y-71000000D03*
%TO.P,RV15,2,2*%
%TO.N,Net-(R23-Pad1)*%
X109000000Y-71000000D03*
%TO.P,RV15,3,3*%
%TO.N,GND*%
X111500000Y-71000000D03*
D12*
%TO.P,RV15,*%
%TO.N,*%
X104200000Y-63500000D03*
X113800000Y-63500000D03*
%TD*%
D10*
%TO.P,D7,1,K*%
%TO.N,GND*%
X83960000Y-52000000D03*
D11*
%TO.P,D7,2,A*%
%TO.N,Net-(D7-A)*%
X86500000Y-52000000D03*
%TD*%
D13*
%TO.P,RV14,1,1*%
%TO.N,+12V*%
X106500000Y-94500000D03*
%TO.P,RV14,2,2*%
%TO.N,Net-(R20-Pad1)*%
X109000000Y-94500000D03*
%TO.P,RV14,3,3*%
%TO.N,Net-(R22-Pad2)*%
X111500000Y-94500000D03*
D12*
%TO.P,RV14,*%
%TO.N,*%
X104200000Y-87000000D03*
X113800000Y-87000000D03*
%TD*%
D13*
%TO.P,RV17,1,1*%
%TO.N,+12V*%
X137500000Y-47500000D03*
%TO.P,RV17,2,2*%
%TO.N,Net-(R26-Pad1)*%
X140000000Y-47500000D03*
%TO.P,RV17,3,3*%
%TO.N,Net-(R28-Pad2)*%
X142500000Y-47500000D03*
D12*
%TO.P,RV17,*%
%TO.N,*%
X135200000Y-40000000D03*
X144800000Y-40000000D03*
%TD*%
D10*
%TO.P,D1,1,K*%
%TO.N,GND*%
X53728872Y-52000000D03*
D11*
%TO.P,D1,2,A*%
%TO.N,Net-(D1-A)*%
X56268872Y-52000000D03*
%TD*%
D12*
%TO.P,REF\u002A\u002A,1*%
%TO.N,GND*%
X205500000Y-64500000D03*
%TD*%
D10*
%TO.P,D13,1,K*%
%TO.N,GND*%
X113960000Y-52000000D03*
D11*
%TO.P,D13,2,A*%
%TO.N,Net-(D13-A)*%
X116500000Y-52000000D03*
%TD*%
D13*
%TO.P,RV2,1,1*%
%TO.N,+12V*%
X46500000Y-94500000D03*
%TO.P,RV2,2,2*%
%TO.N,Net-(R2-Pad1)*%
X49000000Y-94500000D03*
%TO.P,RV2,3,3*%
%TO.N,Net-(R5-Pad2)*%
X51500000Y-94500000D03*
D12*
%TO.P,RV2,*%
%TO.N,*%
X44200000Y-87000000D03*
X53800000Y-87000000D03*
%TD*%
D10*
%TO.P,D14,1,K*%
%TO.N,GND*%
X113960000Y-99000000D03*
D11*
%TO.P,D14,2,A*%
%TO.N,Net-(D14-A)*%
X116500000Y-99000000D03*
%TD*%
D12*
%TO.P,REF\u002A\u002A,1*%
%TO.N,Net-(C15-Pad2)*%
X196500000Y-71500000D03*
%TD*%
D10*
%TO.P,D21,1,K*%
%TO.N,GND*%
X174500000Y-52000000D03*
D11*
%TO.P,D21,2,A*%
%TO.N,Net-(D21-A)*%
X177040000Y-52000000D03*
%TD*%
D13*
%TO.P,RV10,1,1*%
%TO.N,Net-(D7-A)*%
X76500000Y-71000000D03*
%TO.P,RV10,2,2*%
%TO.N,Net-(R16-Pad1)*%
X79000000Y-71000000D03*
%TO.P,RV10,3,3*%
%TO.N,GND*%
X81500000Y-71000000D03*
D12*
%TO.P,RV10,*%
%TO.N,*%
X74200000Y-63500000D03*
X83800000Y-63500000D03*
%TD*%
D10*
%TO.P,D8,1,K*%
%TO.N,GND*%
X83960000Y-99000000D03*
D11*
%TO.P,D8,2,A*%
%TO.N,Net-(D8-A)*%
X86500000Y-99000000D03*
%TD*%
D13*
%TO.P,RV8,1,1*%
%TO.N,+12V*%
X76500000Y-94500000D03*
%TO.P,RV8,2,2*%
%TO.N,Net-(R11-Pad1)*%
X79000000Y-94500000D03*
%TO.P,RV8,3,3*%
%TO.N,Net-(R14-Pad2)*%
X81500000Y-94500000D03*
D12*
%TO.P,RV8,*%
%TO.N,*%
X74200000Y-87000000D03*
X83800000Y-87000000D03*
%TD*%
%TO.P,REF\u002A\u002A,1*%
%TO.N,+12V*%
X207000000Y-117000000D03*
%TD*%
D13*
%TO.P,RV23,1,1*%
%TO.N,Net-(C15-Pad1)*%
X198500000Y-59887500D03*
%TO.P,RV23,2,2*%
%TO.N,Net-(C16-Pad1)*%
X201000000Y-59887500D03*
%TO.P,RV23,3,3*%
X203500000Y-59887500D03*
D12*
%TO.P,RV23,*%
%TO.N,*%
X196200000Y-52387500D03*
X205800000Y-52387500D03*
%TD*%
D13*
%TO.P,RV22,1,1*%
%TO.N,+12V*%
X167000000Y-94500000D03*
%TO.P,RV22,2,2*%
%TO.N,Net-(R35-Pad1)*%
X169500000Y-94500000D03*
%TO.P,RV22,3,3*%
%TO.N,Net-(R37-Pad2)*%
X172000000Y-94500000D03*
D12*
%TO.P,RV22,*%
%TO.N,*%
X164700000Y-87000000D03*
X174300000Y-87000000D03*
%TD*%
D13*
%TO.P,RV20,1,1*%
%TO.N,Net-(D18-A)*%
X137500000Y-117500000D03*
%TO.P,RV20,2,2*%
%TO.N,Net-(R31-Pad1)*%
X140000000Y-117500000D03*
%TO.P,RV20,3,3*%
%TO.N,GND*%
X142500000Y-117500000D03*
D12*
%TO.P,RV20,*%
%TO.N,*%
X135200000Y-110000000D03*
X144800000Y-110000000D03*
%TD*%
D10*
%TO.P,D18,1,K*%
%TO.N,GND*%
X144960000Y-99000000D03*
D11*
%TO.P,D18,2,A*%
%TO.N,Net-(D18-A)*%
X147500000Y-99000000D03*
%TD*%
D14*
%TO.P,REF\u002A\u002A,1*%
%TO.N,N/C*%
X186000000Y-58000000D03*
%TD*%
D13*
%TO.P,RV25,1,1*%
%TO.N,Net-(D22-A)*%
X167000000Y-117500000D03*
%TO.P,RV25,2,2*%
%TO.N,Net-(R39-Pad1)*%
X169500000Y-117500000D03*
%TO.P,RV25,3,3*%
%TO.N,GND*%
X172000000Y-117500000D03*
D12*
%TO.P,RV25,*%
%TO.N,*%
X164700000Y-110000000D03*
X174300000Y-110000000D03*
%TD*%
D13*
%TO.P,RV11,1,1*%
%TO.N,Net-(D8-A)*%
X76500000Y-117500000D03*
%TO.P,RV11,2,2*%
%TO.N,Net-(R17-Pad1)*%
X79000000Y-117500000D03*
%TO.P,RV11,3,3*%
%TO.N,GND*%
X81500000Y-117500000D03*
D12*
%TO.P,RV11,*%
%TO.N,*%
X74200000Y-110000000D03*
X83800000Y-110000000D03*
%TD*%
D13*
%TO.P,RV4,1,1*%
%TO.N,Net-(D1-A)*%
X46500000Y-71000000D03*
%TO.P,RV4,2,2*%
%TO.N,Net-(R7-Pad1)*%
X49000000Y-71000000D03*
%TO.P,RV4,3,3*%
%TO.N,GND*%
X51500000Y-71000000D03*
D12*
%TO.P,RV4,*%
%TO.N,*%
X44200000Y-63500000D03*
X53800000Y-63500000D03*
%TD*%
D10*
%TO.P,D17,1,K*%
%TO.N,GND*%
X145000000Y-52000000D03*
D11*
%TO.P,D17,2,A*%
%TO.N,Net-(D17-A)*%
X147540000Y-52000000D03*
%TD*%
D13*
%TO.P,RV19,1,1*%
%TO.N,Net-(D17-A)*%
X137500000Y-71000000D03*
%TO.P,RV19,2,2*%
%TO.N,Net-(R30-Pad1)*%
X140000000Y-71000000D03*
%TO.P,RV19,3,3*%
%TO.N,GND*%
X142500000Y-71000000D03*
D12*
%TO.P,RV19,*%
%TO.N,*%
X135200000Y-63500000D03*
X144800000Y-63500000D03*
%TD*%
D13*
%TO.P,RV21,1,1*%
%TO.N,+12V*%
X167000000Y-47500000D03*
%TO.P,RV21,2,2*%
%TO.N,Net-(R34-Pad1)*%
X169500000Y-47500000D03*
%TO.P,RV21,3,3*%
%TO.N,Net-(R36-Pad2)*%
X172000000Y-47500000D03*
D12*
%TO.P,RV21,*%
%TO.N,*%
X164700000Y-40000000D03*
X174300000Y-40000000D03*
%TD*%
D13*
%TO.P,RV5,1,1*%
%TO.N,Net-(D2-A)*%
X46500000Y-117500000D03*
%TO.P,RV5,2,2*%
%TO.N,Net-(R8-Pad1)*%
X49000000Y-117500000D03*
%TO.P,RV5,3,3*%
%TO.N,GND*%
X51500000Y-117500000D03*
D12*
%TO.P,RV5,*%
%TO.N,*%
X44200000Y-110000000D03*
X53800000Y-110000000D03*
%TD*%
D13*
%TO.P,RV1,1,1*%
%TO.N,+12V*%
X46500000Y-47500000D03*
%TO.P,RV1,2,2*%
%TO.N,Net-(R1-Pad1)*%
X49000000Y-47500000D03*
%TO.P,RV1,3,3*%
%TO.N,Net-(R4-Pad2)*%
X51500000Y-47500000D03*
D12*
%TO.P,RV1,*%
%TO.N,*%
X44200000Y-40000000D03*
X53800000Y-40000000D03*
%TD*%
D15*
%TO.P,R23,1*%
%TO.N,Net-(R23-Pad1)*%
X119920000Y-63500000D03*
D16*
%TO.P,R23,2*%
%TO.N,Net-(D15-A)*%
X130080000Y-63500000D03*
%TD*%
D15*
%TO.P,R2,1*%
%TO.N,Net-(R2-Pad1)*%
X58500000Y-83500000D03*
D16*
%TO.P,R2,2*%
%TO.N,Net-(Q2-E)*%
X68660000Y-83500000D03*
%TD*%
D15*
%TO.P,R28,1*%
%TO.N,GND*%
X159580000Y-41000000D03*
D16*
%TO.P,R28,2*%
%TO.N,Net-(R28-Pad2)*%
X149420000Y-41000000D03*
%TD*%
D15*
%TO.P,R11,1*%
%TO.N,Net-(R11-Pad1)*%
X87840000Y-84000000D03*
D16*
%TO.P,R11,2*%
%TO.N,Net-(Q5-E)*%
X98000000Y-84000000D03*
%TD*%
D17*
%TO.P,Q11,1,E*%
%TO.N,Net-(Q11-E)*%
X183500000Y-48000000D03*
%TO.P,Q11,3,C*%
%TO.N,Net-(D21-A)*%
X181000000Y-48000000D03*
%TD*%
D18*
%TO.P,D23,1,K*%
%TO.N,Mix*%
X179690000Y-70500000D03*
D16*
%TO.P,D23,2,A*%
%TO.N,Net-(D23-A)*%
X187310000Y-70500000D03*
%TD*%
D18*
%TO.P,D16,1,K*%
%TO.N,Mix*%
X121380000Y-115500000D03*
D16*
%TO.P,D16,2,A*%
%TO.N,Net-(D16-A)*%
X129000000Y-115500000D03*
%TD*%
D15*
%TO.P,R22,1*%
%TO.N,GND*%
X128660000Y-88000000D03*
D16*
%TO.P,R22,2*%
%TO.N,Net-(R22-Pad2)*%
X118500000Y-88000000D03*
%TD*%
D15*
%TO.P,R37,1*%
%TO.N,GND*%
X188160000Y-87500000D03*
D16*
%TO.P,R37,2*%
%TO.N,Net-(R37-Pad2)*%
X178000000Y-87500000D03*
%TD*%
D17*
%TO.P,Q8,1,E*%
%TO.N,Net-(Q8-E)*%
X123500000Y-96000000D03*
%TO.P,Q8,3,C*%
%TO.N,Net-(D14-A)*%
X121000000Y-96000000D03*
%TD*%
D15*
%TO.P,R29,1*%
%TO.N,GND*%
X159660000Y-88000000D03*
D16*
%TO.P,R29,2*%
%TO.N,Net-(R29-Pad2)*%
X149500000Y-88000000D03*
%TD*%
D17*
%TO.P,Q7,1,E*%
%TO.N,Net-(Q7-E)*%
X124000000Y-48000000D03*
%TO.P,Q7,3,C*%
%TO.N,Net-(D13-A)*%
X121500000Y-48000000D03*
%TD*%
D15*
%TO.P,R31,1*%
%TO.N,Net-(R31-Pad1)*%
X148840000Y-111500000D03*
D16*
%TO.P,R31,2*%
%TO.N,Net-(D20-A)*%
X159000000Y-111500000D03*
%TD*%
D15*
%TO.P,R35,1*%
%TO.N,Net-(R35-Pad1)*%
X177840000Y-83500000D03*
D16*
%TO.P,R35,2*%
%TO.N,Net-(Q12-E)*%
X188000000Y-83500000D03*
%TD*%
D17*
%TO.P,Q2,1,E*%
%TO.N,Net-(Q2-E)*%
X63500000Y-94500000D03*
%TO.P,Q2,3,C*%
%TO.N,Net-(D2-A)*%
X61000000Y-94500000D03*
%TD*%
D15*
%TO.P,C16,1*%
%TO.N,Net-(C16-Pad1)*%
X206000000Y-69500000D03*
%TO.P,C16,2*%
%TO.N,GND*%
X206000000Y-72000000D03*
%TD*%
D18*
%TO.P,C9,1*%
%TO.N,+12V*%
X198500000Y-99000000D03*
D15*
%TO.P,C9,2*%
%TO.N,GND*%
X200500000Y-99000000D03*
%TD*%
%TO.P,R21,1*%
%TO.N,GND*%
X129000000Y-41000000D03*
D16*
%TO.P,R21,2*%
%TO.N,Net-(R21-Pad2)*%
X118840000Y-41000000D03*
%TD*%
D18*
%TO.P,C7,1*%
%TO.N,Net-(Q7-E)*%
X129000000Y-48000000D03*
D15*
%TO.P,C7,2*%
%TO.N,GND*%
X129000000Y-46000000D03*
%TD*%
D18*
%TO.P,C2,1*%
%TO.N,Net-(Q2-E)*%
X68500000Y-94500000D03*
D15*
%TO.P,C2,2*%
%TO.N,GND*%
X68500000Y-92500000D03*
%TD*%
%TO.P,R32,1*%
%TO.N,GND*%
X206500000Y-100660000D03*
D16*
%TO.P,R32,2*%
%TO.N,Mix*%
X206500000Y-90500000D03*
%TD*%
D17*
%TO.P,Q1,1,E*%
%TO.N,Net-(Q1-E)*%
X62500000Y-47500000D03*
%TO.P,Q1,3,C*%
%TO.N,Net-(D1-A)*%
X60000000Y-47500000D03*
%TD*%
D15*
%TO.P,R13,1*%
%TO.N,GND*%
X99000000Y-40500000D03*
D16*
%TO.P,R13,2*%
%TO.N,Net-(R13-Pad2)*%
X88840000Y-40500000D03*
%TD*%
D15*
%TO.P,R4,1*%
%TO.N,GND*%
X68660000Y-40500000D03*
D16*
%TO.P,R4,2*%
%TO.N,Net-(R4-Pad2)*%
X58500000Y-40500000D03*
%TD*%
D17*
%TO.P,Q12,1,E*%
%TO.N,Net-(Q12-E)*%
X183500000Y-95500000D03*
%TO.P,Q12,3,C*%
%TO.N,Net-(D22-A)*%
X181000000Y-95500000D03*
%TD*%
%TO.P,Q4,1,E*%
%TO.N,Net-(Q4-E)*%
X93500000Y-47500000D03*
%TO.P,Q4,3,C*%
%TO.N,Net-(D7-A)*%
X91000000Y-47500000D03*
%TD*%
D15*
%TO.P,R19,1*%
%TO.N,Net-(R19-Pad1)*%
X119000000Y-37000000D03*
D16*
%TO.P,R19,2*%
%TO.N,Net-(Q7-E)*%
X129160000Y-37000000D03*
%TD*%
D18*
%TO.P,C14,1*%
%TO.N,Net-(C14-Pad1)*%
X199500000Y-77500000D03*
D15*
%TO.P,C14,2*%
%TO.N,Net-(C14-Pad2)*%
X201500000Y-77500000D03*
%TD*%
D18*
%TO.P,D4,1,K*%
%TO.N,Mix*%
X61000000Y-67500000D03*
D16*
%TO.P,D4,2,A*%
%TO.N,Net-(D4-A)*%
X68620000Y-67500000D03*
%TD*%
D18*
%TO.P,D24,1,K*%
%TO.N,Mix*%
X180190000Y-115500000D03*
D16*
%TO.P,D24,2,A*%
%TO.N,Net-(D24-A)*%
X187810000Y-115500000D03*
%TD*%
D17*
%TO.P,Q5,1,E*%
%TO.N,Net-(Q5-E)*%
X93000000Y-95000000D03*
%TO.P,Q5,3,C*%
%TO.N,Net-(D8-A)*%
X90500000Y-95000000D03*
%TD*%
D15*
%TO.P,R36,1*%
%TO.N,GND*%
X188580000Y-41000000D03*
D16*
%TO.P,R36,2*%
%TO.N,Net-(R36-Pad2)*%
X178420000Y-41000000D03*
%TD*%
D18*
%TO.P,D20,1,K*%
%TO.N,Mix*%
X151380000Y-115500000D03*
D16*
%TO.P,D20,2,A*%
%TO.N,Net-(D20-A)*%
X159000000Y-115500000D03*
%TD*%
D18*
%TO.P,D10,1,K*%
%TO.N,Mix*%
X90380000Y-67500000D03*
D16*
%TO.P,D10,2,A*%
%TO.N,Net-(D10-A)*%
X98000000Y-67500000D03*
%TD*%
D18*
%TO.P,C1,1*%
%TO.N,Net-(Q1-E)*%
X68500000Y-47500000D03*
D15*
%TO.P,C1,2*%
%TO.N,GND*%
X68500000Y-45500000D03*
%TD*%
%TO.P,R24,1*%
%TO.N,Net-(R24-Pad1)*%
X118840000Y-111500000D03*
D16*
%TO.P,R24,2*%
%TO.N,Net-(D16-A)*%
X129000000Y-111500000D03*
%TD*%
D18*
%TO.P,D19,1,K*%
%TO.N,Mix*%
X152380000Y-68000000D03*
D16*
%TO.P,D19,2,A*%
%TO.N,Net-(D19-A)*%
X160000000Y-68000000D03*
%TD*%
D17*
%TO.P,Q9,1,E*%
%TO.N,Net-(Q9-E)*%
X154500000Y-47500000D03*
%TO.P,Q9,3,C*%
%TO.N,Net-(D17-A)*%
X152000000Y-47500000D03*
%TD*%
D15*
%TO.P,R10,1*%
%TO.N,Net-(R10-Pad1)*%
X89000000Y-37000000D03*
D16*
%TO.P,R10,2*%
%TO.N,Net-(Q4-E)*%
X99160000Y-37000000D03*
%TD*%
D18*
%TO.P,C8,1*%
%TO.N,Net-(Q8-E)*%
X128500000Y-96000000D03*
D15*
%TO.P,C8,2*%
%TO.N,GND*%
X128500000Y-94000000D03*
%TD*%
D18*
%TO.P,U1,1,GAIN*%
%TO.N,Net-(C14-Pad2)*%
X202000000Y-84000000D03*
D16*
%TO.P,U1,2,-*%
%TO.N,GND*%
X202000000Y-86540000D03*
%TO.P,U1,3,+*%
%TO.N,Mix*%
X202000000Y-89080000D03*
%TO.P,U1,4,GND*%
%TO.N,GND*%
X202000000Y-91620000D03*
%TO.P,U1,5*%
%TO.N,Net-(R33-Pad2)*%
X194380000Y-91620000D03*
%TO.P,U1,6,V+*%
%TO.N,+12V*%
X194380000Y-89080000D03*
%TO.P,U1,7,BYPASS*%
%TO.N,unconnected-(U1-BYPASS-Pad7)*%
X194380000Y-86540000D03*
%TO.P,U1,8,GAIN*%
%TO.N,Net-(C14-Pad1)*%
X194380000Y-84000000D03*
%TD*%
D17*
%TO.P,Q10,1,E*%
%TO.N,Net-(Q10-E)*%
X154500000Y-95000000D03*
%TO.P,Q10,3,C*%
%TO.N,Net-(D18-A)*%
X152000000Y-95000000D03*
%TD*%
D15*
%TO.P,R33,1*%
%TO.N,Net-(C15-Pad1)*%
X192000000Y-66000000D03*
D16*
%TO.P,R33,2*%
%TO.N,Net-(R33-Pad2)*%
X192000000Y-76160000D03*
%TD*%
D15*
%TO.P,R5,1*%
%TO.N,GND*%
X68660000Y-87500000D03*
D16*
%TO.P,R5,2*%
%TO.N,Net-(R5-Pad2)*%
X58500000Y-87500000D03*
%TD*%
D15*
%TO.P,R8,1*%
%TO.N,Net-(R8-Pad1)*%
X57340000Y-111500000D03*
D16*
%TO.P,R8,2*%
%TO.N,Net-(D5-A)*%
X67500000Y-111500000D03*
%TD*%
D18*
%TO.P,C5,1*%
%TO.N,Net-(Q5-E)*%
X98000000Y-95000000D03*
D15*
%TO.P,C5,2*%
%TO.N,GND*%
X98000000Y-93000000D03*
%TD*%
%TO.P,R25,1*%
%TO.N,+12V*%
X198500000Y-103420000D03*
D16*
%TO.P,R25,2*%
X198500000Y-113580000D03*
%TD*%
D15*
%TO.P,R34,1*%
%TO.N,Net-(R34-Pad1)*%
X178420000Y-37000000D03*
D16*
%TO.P,R34,2*%
%TO.N,Net-(Q11-E)*%
X188580000Y-37000000D03*
%TD*%
D15*
%TO.P,R27,1*%
%TO.N,Net-(R27-Pad1)*%
X149340000Y-84000000D03*
D16*
%TO.P,R27,2*%
%TO.N,Net-(Q10-E)*%
X159500000Y-84000000D03*
%TD*%
D18*
%TO.P,C15,1*%
%TO.N,Net-(C15-Pad1)*%
X198500000Y-66000000D03*
D15*
%TO.P,C15,2*%
%TO.N,Net-(C15-Pad2)*%
X200500000Y-66000000D03*
%TD*%
%TO.P,R38,1*%
%TO.N,Net-(R38-Pad1)*%
X177340000Y-66500000D03*
D16*
%TO.P,R38,2*%
%TO.N,Net-(D23-A)*%
X187500000Y-66500000D03*
%TD*%
D18*
%TO.P,C4,1*%
%TO.N,Net-(Q4-E)*%
X99000000Y-47500000D03*
D15*
%TO.P,C4,2*%
%TO.N,GND*%
X99000000Y-45500000D03*
%TD*%
D18*
%TO.P,C12,1*%
%TO.N,Net-(Q11-E)*%
X188500000Y-48000000D03*
D15*
%TO.P,C12,2*%
%TO.N,GND*%
X188500000Y-46000000D03*
%TD*%
%TO.P,R14,1*%
%TO.N,GND*%
X98080000Y-88000000D03*
D16*
%TO.P,R14,2*%
%TO.N,Net-(R14-Pad2)*%
X87920000Y-88000000D03*
%TD*%
D18*
%TO.P,D5,1,K*%
%TO.N,Mix*%
X59880000Y-115500000D03*
D16*
%TO.P,D5,2,A*%
%TO.N,Net-(D5-A)*%
X67500000Y-115500000D03*
%TD*%
D15*
%TO.P,R1,1*%
%TO.N,Net-(R1-Pad1)*%
X58500000Y-36500000D03*
D16*
%TO.P,R1,2*%
%TO.N,Net-(Q1-E)*%
X68660000Y-36500000D03*
%TD*%
D15*
%TO.P,R7,1*%
%TO.N,Net-(R7-Pad1)*%
X58420000Y-63500000D03*
D16*
%TO.P,R7,2*%
%TO.N,Net-(D4-A)*%
X68580000Y-63500000D03*
%TD*%
D15*
%TO.P,R16,1*%
%TO.N,Net-(R16-Pad1)*%
X88000000Y-63500000D03*
D16*
%TO.P,R16,2*%
%TO.N,Net-(D10-A)*%
X98160000Y-63500000D03*
%TD*%
D15*
%TO.P,R30,1*%
%TO.N,Net-(R30-Pad1)*%
X150000000Y-64000000D03*
D16*
%TO.P,R30,2*%
%TO.N,Net-(D19-A)*%
X160160000Y-64000000D03*
%TD*%
D18*
%TO.P,D11,1,K*%
%TO.N,Mix*%
X91380000Y-115500000D03*
D16*
%TO.P,D11,2,A*%
%TO.N,Net-(D11-A)*%
X99000000Y-115500000D03*
%TD*%
D15*
%TO.P,R17,1*%
%TO.N,Net-(R17-Pad1)*%
X88840000Y-111500000D03*
D16*
%TO.P,R17,2*%
%TO.N,Net-(D11-A)*%
X99000000Y-111500000D03*
%TD*%
D15*
%TO.P,R26,1*%
%TO.N,Net-(R26-Pad1)*%
X149420000Y-37000000D03*
D16*
%TO.P,R26,2*%
%TO.N,Net-(Q9-E)*%
X159580000Y-37000000D03*
%TD*%
D18*
%TO.P,C11,1*%
%TO.N,Net-(Q10-E)*%
X159500000Y-95000000D03*
D15*
%TO.P,C11,2*%
%TO.N,GND*%
X159500000Y-93000000D03*
%TD*%
D18*
%TO.P,C13,1*%
%TO.N,Net-(Q12-E)*%
X188000000Y-95500000D03*
D15*
%TO.P,C13,2*%
%TO.N,GND*%
X188000000Y-93500000D03*
%TD*%
%TO.P,R39,1*%
%TO.N,Net-(R39-Pad1)*%
X177840000Y-112000000D03*
D16*
%TO.P,R39,2*%
%TO.N,Net-(D24-A)*%
X188000000Y-112000000D03*
%TD*%
D15*
%TO.P,R20,1*%
%TO.N,Net-(R20-Pad1)*%
X118340000Y-84000000D03*
D16*
%TO.P,R20,2*%
%TO.N,Net-(Q8-E)*%
X128500000Y-84000000D03*
%TD*%
D18*
%TO.P,D15,1,K*%
%TO.N,Mix*%
X122380000Y-67000000D03*
D16*
%TO.P,D15,2,A*%
%TO.N,Net-(D15-A)*%
X130000000Y-67000000D03*
%TD*%
D18*
%TO.P,C10,1*%
%TO.N,Net-(Q9-E)*%
X159500000Y-47500000D03*
D15*
%TO.P,C10,2*%
%TO.N,GND*%
X159500000Y-45500000D03*
%TD*%
D19*
%TO.N,Net-(D1-A)*%
X50000000Y-59500000D03*
%TO.N,+12V*%
X191000000Y-99000000D03*
%TO.N,GND*%
X107500000Y-109500000D03*
X139000000Y-100000000D03*
X168000000Y-99500000D03*
X75500000Y-98000000D03*
%TO.N,Net-(D2-A)*%
X50500000Y-111000000D03*
%TO.N,Mix*%
X208500000Y-79000000D03*
%TO.N,Net-(D7-A)*%
X80000000Y-59500000D03*
%TO.N,Net-(D8-A)*%
X80000000Y-112000000D03*
%TO.N,Net-(D13-A)*%
X110500000Y-59500000D03*
%TO.N,Net-(D14-A)*%
X110000000Y-112000000D03*
%TO.N,Net-(D17-A)*%
X141500000Y-59500000D03*
%TO.N,Net-(D18-A)*%
X141500000Y-113000000D03*
%TO.N,Net-(D21-A)*%
X170500000Y-59500000D03*
%TO.N,Net-(D22-A)*%
X170500000Y-112500000D03*
%TD*%
D20*
%TO.N,Net-(D1-A)*%
X59500000Y-47500000D02*
X56268872Y-50731128D01*
X56268872Y-53231128D02*
X56268872Y-52000000D01*
X56268872Y-50731128D02*
X56268872Y-52000000D01*
X60000000Y-47500000D02*
X59500000Y-47500000D01*
X50000000Y-59500000D02*
X56268872Y-53231128D01*
%TO.N,Net-(Q1-E)*%
X68660000Y-36500000D02*
X70500000Y-36500000D01*
X71500000Y-44500000D02*
X68500000Y-47500000D01*
X71500000Y-37500000D02*
X71500000Y-44500000D01*
X70500000Y-36500000D02*
X71500000Y-37500000D01*
%TO.N,+12V*%
X106500000Y-38500000D02*
X106500000Y-47500000D01*
X137500000Y-85500000D02*
X142500000Y-80500000D01*
X46500000Y-80500000D02*
X71000000Y-80500000D01*
X76500000Y-86000000D02*
X76500000Y-94500000D01*
X42000000Y-52000000D02*
X42000000Y-85000000D01*
X71000000Y-80500000D02*
X76500000Y-86000000D01*
X76500000Y-37500000D02*
X81500000Y-32500000D01*
X76500000Y-86000000D02*
X82000000Y-80500000D01*
X207000000Y-117000000D02*
X201920000Y-117000000D01*
X106500000Y-84000000D02*
X110000000Y-80500000D01*
X42000000Y-85000000D02*
X46500000Y-80500000D01*
X76500000Y-37500000D02*
X76500000Y-47500000D01*
X137500000Y-85500000D02*
X137500000Y-94500000D01*
X196580000Y-89080000D02*
X198500000Y-91000000D01*
X167000000Y-38000000D02*
X167000000Y-47500000D01*
X132500000Y-32500000D02*
X137500000Y-37500000D01*
X106500000Y-84000000D02*
X106500000Y-94500000D01*
X106500000Y-38500000D02*
X112500000Y-32500000D01*
X137500000Y-37500000D02*
X137500000Y-47500000D01*
X41500000Y-42500000D02*
X41500000Y-35000000D01*
X142500000Y-32500000D02*
X161500000Y-32500000D01*
X110000000Y-80500000D02*
X132500000Y-80500000D01*
X137500000Y-37500000D02*
X142500000Y-32500000D01*
X198500000Y-91000000D02*
X198500000Y-99000000D01*
X41500000Y-35000000D02*
X44000000Y-32500000D01*
X42000000Y-85000000D02*
X42000000Y-90000000D01*
X71500000Y-32500000D02*
X76500000Y-37500000D01*
X161500000Y-32500000D02*
X167000000Y-38000000D01*
X46500000Y-47500000D02*
X41500000Y-42500000D01*
X132500000Y-80500000D02*
X137500000Y-85500000D01*
X198500000Y-99000000D02*
X191000000Y-99000000D01*
X198500000Y-103420000D02*
X198500000Y-99000000D01*
X44000000Y-32500000D02*
X71500000Y-32500000D01*
X100500000Y-32500000D02*
X106500000Y-38500000D01*
X42000000Y-90000000D02*
X46500000Y-94500000D01*
X112500000Y-32500000D02*
X132500000Y-32500000D01*
X167000000Y-86500000D02*
X167000000Y-94500000D01*
X161000000Y-80500000D02*
X167000000Y-86500000D01*
X103000000Y-80500000D02*
X106500000Y-84000000D01*
X82000000Y-80500000D02*
X103000000Y-80500000D01*
X142500000Y-80500000D02*
X161000000Y-80500000D01*
X194380000Y-89080000D02*
X196580000Y-89080000D01*
X201920000Y-117000000D02*
X198500000Y-113580000D01*
X81500000Y-32500000D02*
X100500000Y-32500000D01*
X46500000Y-47500000D02*
X42000000Y-52000000D01*
%TO.N,GND*%
X47460000Y-66960000D02*
X51500000Y-71000000D01*
X99000000Y-45500000D02*
X98000000Y-45500000D01*
X54000000Y-95000000D02*
X54000000Y-96000000D01*
X128660000Y-93840000D02*
X128500000Y-94000000D01*
X203000000Y-107000000D02*
X203000000Y-100660000D01*
X53960000Y-99000000D02*
X48000000Y-104960000D01*
X50000000Y-52000000D02*
X47460000Y-54540000D01*
X141960000Y-99000000D02*
X138960000Y-102000000D01*
X77460000Y-102000000D02*
X77460000Y-113460000D01*
X206500000Y-100660000D02*
X203000000Y-100660000D01*
X188500000Y-46000000D02*
X186500000Y-44000000D01*
X95500000Y-90500000D02*
X89500000Y-90500000D01*
X202160000Y-100660000D02*
X200500000Y-99000000D01*
X179500000Y-91000000D02*
X174460000Y-96040000D01*
X96000000Y-51000000D02*
X100500000Y-55500000D01*
X99000000Y-43000000D02*
X89500000Y-43000000D01*
X157500000Y-45500000D02*
X156500000Y-46500000D01*
X172000000Y-66500000D02*
X172000000Y-71000000D01*
X128660000Y-88000000D02*
X128660000Y-93840000D01*
X98080000Y-88000000D02*
X98080000Y-92920000D01*
X159580000Y-45420000D02*
X159500000Y-45500000D01*
X208500000Y-69500000D02*
X206000000Y-72000000D01*
X159660000Y-88000000D02*
X159660000Y-92840000D01*
X202000000Y-97500000D02*
X202000000Y-91620000D01*
X107500000Y-109500000D02*
X107500000Y-113420000D01*
X174500000Y-49000000D02*
X174500000Y-52000000D01*
X159580000Y-43000000D02*
X159580000Y-43500000D01*
X73500000Y-57500000D02*
X75000000Y-57500000D01*
X159580000Y-43500000D02*
X150000000Y-43500000D01*
X75000000Y-55460000D02*
X75000000Y-57500000D01*
X68660000Y-92340000D02*
X68500000Y-92500000D01*
X131000000Y-55500000D02*
X135500000Y-55500000D01*
X188160000Y-93340000D02*
X188000000Y-93500000D01*
X99000000Y-40500000D02*
X99000000Y-43000000D01*
X47460000Y-54540000D02*
X47460000Y-66960000D01*
X98000000Y-93000000D02*
X95500000Y-90500000D01*
X68660000Y-44840000D02*
X68660000Y-42500000D01*
X188580000Y-43000000D02*
X188580000Y-45920000D01*
X185500000Y-91000000D02*
X179500000Y-91000000D01*
X203460000Y-86540000D02*
X202000000Y-86540000D01*
X100500000Y-55500000D02*
X103500000Y-55500000D01*
X59500000Y-42500000D02*
X53728872Y-48271128D01*
X144960000Y-99000000D02*
X141960000Y-99000000D01*
X174460000Y-96040000D02*
X174460000Y-99000000D01*
X83960000Y-96040000D02*
X83960000Y-99000000D01*
X135500000Y-55500000D02*
X142500000Y-62500000D01*
X113960000Y-49540000D02*
X113960000Y-52000000D01*
X139000000Y-52000000D02*
X135500000Y-55500000D01*
X208500000Y-67500000D02*
X208500000Y-69500000D01*
X103500000Y-55500000D02*
X111500000Y-63500000D01*
X53960000Y-96040000D02*
X53960000Y-99000000D01*
X68660000Y-90000000D02*
X68660000Y-92340000D01*
X174460000Y-99000000D02*
X171960000Y-99000000D01*
X156500000Y-51000000D02*
X162750000Y-57250000D01*
X159580000Y-43500000D02*
X159580000Y-45420000D01*
X98000000Y-45500000D02*
X96000000Y-47500000D01*
X107500000Y-113420000D02*
X107460000Y-113460000D01*
X157000000Y-90500000D02*
X149000000Y-90500000D01*
X48000000Y-113920000D02*
X47960000Y-113960000D01*
X78460000Y-52000000D02*
X75000000Y-55460000D01*
X168000000Y-102960000D02*
X167960000Y-103000000D01*
X203000000Y-100660000D02*
X202160000Y-100660000D01*
X168000000Y-99500000D02*
X168000000Y-102960000D01*
X77460000Y-99500000D02*
X77460000Y-102000000D01*
X47960000Y-113960000D02*
X51500000Y-117500000D01*
X188580000Y-41000000D02*
X188580000Y-43000000D01*
X75500000Y-100040000D02*
X77460000Y-102000000D01*
X139000000Y-101960000D02*
X138960000Y-102000000D01*
X107500000Y-105460000D02*
X107500000Y-109500000D01*
X68660000Y-90000000D02*
X59000000Y-90000000D01*
X167960000Y-103000000D02*
X167960000Y-113460000D01*
X138960000Y-102000000D02*
X138960000Y-113960000D01*
X188000000Y-93500000D02*
X185500000Y-91000000D01*
X86500000Y-46000000D02*
X86500000Y-47500000D01*
X150000000Y-43500000D02*
X145000000Y-48500000D01*
X83960000Y-99000000D02*
X77960000Y-99000000D01*
X65000000Y-47000000D02*
X65000000Y-49000000D01*
X159500000Y-45500000D02*
X157500000Y-45500000D01*
X77960000Y-99000000D02*
X77460000Y-99500000D01*
X68660000Y-42500000D02*
X68660000Y-40500000D01*
X68500000Y-45500000D02*
X68500000Y-45000000D01*
X206000000Y-84000000D02*
X203460000Y-86540000D01*
X111500000Y-63500000D02*
X111500000Y-71000000D01*
X59000000Y-90000000D02*
X54000000Y-95000000D01*
X113960000Y-99000000D02*
X107500000Y-105460000D01*
X68660000Y-87500000D02*
X68660000Y-90000000D01*
X171960000Y-99000000D02*
X167960000Y-103000000D01*
X127500000Y-46000000D02*
X126500000Y-47000000D01*
X129000000Y-43500000D02*
X120000000Y-43500000D01*
X138960000Y-113960000D02*
X142500000Y-117500000D01*
X54000000Y-96000000D02*
X53960000Y-96040000D01*
X205500000Y-64500000D02*
X208500000Y-67500000D01*
X207000000Y-111000000D02*
X203000000Y-107000000D01*
X145000000Y-48500000D02*
X145000000Y-52000000D01*
X144960000Y-94540000D02*
X144960000Y-99000000D01*
X139000000Y-100000000D02*
X139000000Y-101960000D01*
X48000000Y-104960000D02*
X48000000Y-113920000D01*
X188160000Y-87500000D02*
X188160000Y-93340000D01*
X156500000Y-46500000D02*
X156500000Y-51000000D01*
X68500000Y-45500000D02*
X66500000Y-45500000D01*
X129000000Y-43500000D02*
X129000000Y-46000000D01*
X66500000Y-45500000D02*
X65000000Y-47000000D01*
X179500000Y-44000000D02*
X174500000Y-49000000D01*
X107460000Y-113460000D02*
X111500000Y-117500000D01*
X174500000Y-52000000D02*
X168000000Y-52000000D01*
X53728872Y-48271128D02*
X53728872Y-52000000D01*
X142500000Y-62500000D02*
X142500000Y-71000000D01*
X145000000Y-52000000D02*
X139000000Y-52000000D01*
X129000000Y-46000000D02*
X127500000Y-46000000D01*
X68500000Y-45000000D02*
X68660000Y-44840000D01*
X77460000Y-113460000D02*
X81500000Y-117500000D01*
X89500000Y-43000000D02*
X86500000Y-46000000D01*
X81500000Y-64000000D02*
X81500000Y-71000000D01*
X168000000Y-52000000D02*
X162750000Y-57250000D01*
X75500000Y-98000000D02*
X75500000Y-100040000D01*
X159500000Y-93000000D02*
X157000000Y-90500000D01*
X126500000Y-47000000D02*
X126500000Y-51000000D01*
X75000000Y-57500000D02*
X81500000Y-64000000D01*
X107000000Y-52000000D02*
X103500000Y-55500000D01*
X68660000Y-42500000D02*
X59500000Y-42500000D01*
X149000000Y-90500000D02*
X144960000Y-94540000D01*
X89500000Y-90500000D02*
X83960000Y-96040000D01*
X120000000Y-43500000D02*
X113960000Y-49540000D01*
X186500000Y-44000000D02*
X179500000Y-44000000D01*
X113960000Y-52000000D02*
X107000000Y-52000000D01*
X96000000Y-47500000D02*
X96000000Y-51000000D01*
X98080000Y-92920000D02*
X98000000Y-93000000D01*
X126500000Y-51000000D02*
X131000000Y-55500000D01*
X200500000Y-99000000D02*
X202000000Y-97500000D01*
X129000000Y-41000000D02*
X129000000Y-43500000D01*
X206000000Y-72000000D02*
X206000000Y-84000000D01*
X99000000Y-43000000D02*
X99000000Y-45500000D01*
X159660000Y-92840000D02*
X159500000Y-93000000D01*
X65000000Y-49000000D02*
X73500000Y-57500000D01*
X167960000Y-113460000D02*
X172000000Y-117500000D01*
X83960000Y-52000000D02*
X78460000Y-52000000D01*
X86500000Y-47500000D02*
X83960000Y-50040000D01*
X159580000Y-41000000D02*
X159580000Y-43000000D01*
X188580000Y-45920000D02*
X188500000Y-46000000D01*
X53728872Y-52000000D02*
X50000000Y-52000000D01*
X83960000Y-50040000D02*
X83960000Y-52000000D01*
X162750000Y-57250000D02*
X172000000Y-66500000D01*
%TO.N,Net-(Q2-E)*%
X68500000Y-94500000D02*
X63500000Y-94500000D01*
X71500000Y-91500000D02*
X68500000Y-94500000D01*
X70000000Y-83500000D02*
X71500000Y-85000000D01*
X68660000Y-83500000D02*
X70000000Y-83500000D01*
X71500000Y-85000000D02*
X71500000Y-91500000D01*
%TO.N,Net-(D2-A)*%
X56500000Y-105000000D02*
X56500000Y-99000000D01*
X61000000Y-94500000D02*
X56500000Y-99000000D01*
X50500000Y-111000000D02*
X56500000Y-105000000D01*
%TO.N,Net-(D4-A)*%
X68580000Y-67460000D02*
X68620000Y-67500000D01*
X68580000Y-63500000D02*
X68580000Y-67460000D01*
%TO.N,Net-(Q4-E)*%
X100500000Y-37000000D02*
X101500000Y-38000000D01*
X101500000Y-38000000D02*
X101500000Y-46000000D01*
X101500000Y-46000000D02*
X100000000Y-47500000D01*
X100000000Y-47500000D02*
X99000000Y-47500000D01*
X99160000Y-37000000D02*
X100500000Y-37000000D01*
%TO.N,Net-(D5-A)*%
X67500000Y-111500000D02*
X67500000Y-115500000D01*
%TO.N,Net-(R2-Pad1)*%
X52500000Y-83500000D02*
X49000000Y-87000000D01*
X58500000Y-83500000D02*
X52500000Y-83500000D01*
X49000000Y-87000000D02*
X49000000Y-94500000D01*
%TO.N,Net-(R4-Pad2)*%
X51500000Y-47500000D02*
X58500000Y-40500000D01*
X58420000Y-40580000D02*
X58420000Y-40500000D01*
%TO.N,Net-(R8-Pad1)*%
X52500000Y-119000000D02*
X50500000Y-119000000D01*
X57340000Y-111500000D02*
X56540001Y-112299999D01*
X56540001Y-114959999D02*
X52500000Y-119000000D01*
X56540001Y-112299999D02*
X56540001Y-114959999D01*
X50500000Y-119000000D02*
X49000000Y-117500000D01*
%TO.N,Net-(R11-Pad1)*%
X79000000Y-88000000D02*
X79000000Y-94500000D01*
X87840000Y-84000000D02*
X83000000Y-84000000D01*
X83000000Y-84000000D02*
X79000000Y-88000000D01*
%TO.N,Net-(Q5-E)*%
X98000000Y-84000000D02*
X100000000Y-84000000D01*
X99500000Y-95000000D02*
X98000000Y-95000000D01*
X101500000Y-85500000D02*
X101500000Y-93000000D01*
X100000000Y-84000000D02*
X101500000Y-85500000D01*
X98000000Y-95000000D02*
X93000000Y-95000000D01*
X101500000Y-93000000D02*
X99500000Y-95000000D01*
%TO.N,Net-(Q7-E)*%
X133000000Y-46000000D02*
X131000000Y-48000000D01*
X133000000Y-38500000D02*
X133000000Y-46000000D01*
X131500000Y-37000000D02*
X133000000Y-38500000D01*
X131000000Y-48000000D02*
X129000000Y-48000000D01*
X129160000Y-37000000D02*
X131500000Y-37000000D01*
%TO.N,Net-(Q8-E)*%
X130000000Y-96000000D02*
X128500000Y-96000000D01*
X130000000Y-84000000D02*
X132000000Y-86000000D01*
X128500000Y-84000000D02*
X130000000Y-84000000D01*
X132000000Y-86000000D02*
X132000000Y-94000000D01*
X128500000Y-96000000D02*
X123500000Y-96000000D01*
X132000000Y-94000000D02*
X130000000Y-96000000D01*
%TO.N,Net-(Q9-E)*%
X162000000Y-38000000D02*
X162000000Y-46000000D01*
X159580000Y-37000000D02*
X161000000Y-37000000D01*
X161000000Y-37000000D02*
X162000000Y-38000000D01*
X160500000Y-47500000D02*
X159500000Y-47500000D01*
X162000000Y-46000000D02*
X160500000Y-47500000D01*
%TO.N,Net-(Q10-E)*%
X161500000Y-95000000D02*
X159500000Y-95000000D01*
X162500000Y-85500000D02*
X162500000Y-94000000D01*
X161000000Y-84000000D02*
X162500000Y-85500000D01*
X159500000Y-84000000D02*
X161000000Y-84000000D01*
X159500000Y-95000000D02*
X154500000Y-95000000D01*
X162500000Y-94000000D02*
X161500000Y-95000000D01*
%TO.N,Net-(Q11-E)*%
X191000000Y-38000000D02*
X191000000Y-47000000D01*
X188500000Y-48000000D02*
X183500000Y-48000000D01*
X190000000Y-48000000D02*
X188500000Y-48000000D01*
X191000000Y-47000000D02*
X190000000Y-48000000D01*
X188580000Y-37000000D02*
X190000000Y-37000000D01*
X190000000Y-37000000D02*
X191000000Y-38000000D01*
%TO.N,Net-(Q12-E)*%
X188000000Y-83500000D02*
X189500000Y-83500000D01*
X190000000Y-93500000D02*
X188000000Y-95500000D01*
X188000000Y-95500000D02*
X183500000Y-95500000D01*
X190000000Y-84000000D02*
X190000000Y-93500000D01*
X189500000Y-83500000D02*
X190000000Y-84000000D01*
%TO.N,Mix*%
X208500000Y-79000000D02*
X208500000Y-88500000D01*
X97880000Y-75000000D02*
X90380000Y-67500000D01*
X202000000Y-89080000D02*
X205080000Y-89080000D01*
X152380000Y-69620000D02*
X147000000Y-75000000D01*
X114500000Y-75000000D02*
X97880000Y-75000000D01*
X90380000Y-67500000D02*
X90380000Y-67620000D01*
X90380000Y-67620000D02*
X83000000Y-75000000D01*
X114500000Y-74880000D02*
X114500000Y-75000000D01*
X152380000Y-68000000D02*
X152380000Y-69620000D01*
X83000000Y-75000000D02*
X68500000Y-75000000D01*
X208500000Y-88500000D02*
X206500000Y-90500000D01*
X175190000Y-75000000D02*
X159380000Y-75000000D01*
X152380000Y-68000000D02*
X159380000Y-75000000D01*
X205080000Y-89080000D02*
X206500000Y-90500000D01*
X179690000Y-70500000D02*
X175190000Y-75000000D01*
X147000000Y-75000000D02*
X130380000Y-75000000D01*
X68500000Y-75000000D02*
X61000000Y-67500000D01*
X130380000Y-75000000D02*
X122380000Y-67000000D01*
X122380000Y-67000000D02*
X114500000Y-74880000D01*
%TO.N,Net-(D7-A)*%
X91000000Y-47500000D02*
X86500000Y-52000000D01*
X86500000Y-52000000D02*
X86500000Y-53000000D01*
X86500000Y-53000000D02*
X80000000Y-59500000D01*
%TO.N,Net-(D8-A)*%
X86500000Y-100000000D02*
X80000000Y-106500000D01*
X80000000Y-106500000D02*
X80000000Y-112000000D01*
X86500000Y-99000000D02*
X86500000Y-100000000D01*
X90500000Y-95000000D02*
X86500000Y-99000000D01*
%TO.N,Net-(D10-A)*%
X98160000Y-66840000D02*
X98160000Y-63500000D01*
X98000000Y-67500000D02*
X98000000Y-67000000D01*
X98000000Y-67000000D02*
X98160000Y-66840000D01*
%TO.N,Net-(D11-A)*%
X99000000Y-111500000D02*
X99000000Y-115500000D01*
%TO.N,Net-(D13-A)*%
X116500000Y-53500000D02*
X110500000Y-59500000D01*
X120500000Y-48000000D02*
X116500000Y-52000000D01*
X116500000Y-52000000D02*
X116500000Y-53500000D01*
X121500000Y-48000000D02*
X120500000Y-48000000D01*
%TO.N,Net-(D14-A)*%
X116500000Y-99000000D02*
X116500000Y-100000000D01*
X121000000Y-96000000D02*
X119500000Y-96000000D01*
X119500000Y-96000000D02*
X116500000Y-99000000D01*
X110000000Y-106500000D02*
X110000000Y-112000000D01*
X116500000Y-100000000D02*
X110000000Y-106500000D01*
%TO.N,Net-(D15-A)*%
X130080000Y-66920000D02*
X130000000Y-67000000D01*
X130080000Y-63500000D02*
X130080000Y-66920000D01*
%TO.N,Net-(D16-A)*%
X129000000Y-111500000D02*
X129000000Y-115500000D01*
%TO.N,Net-(D17-A)*%
X147540000Y-51960000D02*
X147540000Y-52000000D01*
X152000000Y-47500000D02*
X147540000Y-51960000D01*
X147540000Y-53460000D02*
X147540000Y-52000000D01*
X141500000Y-59500000D02*
X147540000Y-53460000D01*
%TO.N,Net-(D18-A)*%
X141500000Y-109000000D02*
X141500000Y-113000000D01*
X147500000Y-97500000D02*
X147500000Y-99000000D01*
X152000000Y-95000000D02*
X150000000Y-95000000D01*
X147500000Y-103000000D02*
X141500000Y-109000000D01*
X150000000Y-95000000D02*
X147500000Y-97500000D01*
X147500000Y-99000000D02*
X147500000Y-103000000D01*
%TO.N,Net-(D19-A)*%
X160160000Y-64000000D02*
X160160000Y-67840000D01*
X160160000Y-67840000D02*
X160000000Y-68000000D01*
%TO.N,Net-(D20-A)*%
X159000000Y-111500000D02*
X159000000Y-115500000D01*
%TO.N,Net-(D21-A)*%
X177040000Y-51960000D02*
X177040000Y-52000000D01*
X181000000Y-48000000D02*
X177040000Y-51960000D01*
X177040000Y-52960000D02*
X170500000Y-59500000D01*
X177040000Y-52000000D02*
X177040000Y-52960000D01*
%TO.N,Net-(D22-A)*%
X177000000Y-99000000D02*
X177000000Y-102500000D01*
X180500000Y-95500000D02*
X181000000Y-95500000D01*
X177000000Y-102500000D02*
X170500000Y-109000000D01*
X177000000Y-99000000D02*
X180500000Y-95500000D01*
X170500000Y-109000000D02*
X170500000Y-112500000D01*
%TO.N,Net-(D23-A)*%
X187500000Y-70310000D02*
X187310000Y-70500000D01*
X187500000Y-66500000D02*
X187500000Y-70310000D01*
%TO.N,Net-(D24-A)*%
X188000000Y-112000000D02*
X188000000Y-115310000D01*
X188000000Y-115310000D02*
X187810000Y-115500000D01*
%TO.N,Net-(R13-Pad2)*%
X81840000Y-47500000D02*
X81500000Y-47500000D01*
X88840000Y-40500000D02*
X81840000Y-47500000D01*
%TO.N,Net-(R17-Pad1)*%
X80500000Y-119000000D02*
X82500000Y-119000000D01*
X82500000Y-119000000D02*
X88840000Y-112660000D01*
X79000000Y-117500000D02*
X80500000Y-119000000D01*
X88840000Y-112660000D02*
X88840000Y-111500000D01*
%TO.N,Net-(R20-Pad1)*%
X109000000Y-88000000D02*
X109000000Y-94500000D01*
X113000000Y-84000000D02*
X109000000Y-88000000D01*
X118340000Y-84000000D02*
X113000000Y-84000000D01*
%TO.N,Net-(R22-Pad2)*%
X112000000Y-94500000D02*
X111500000Y-94500000D01*
X118500000Y-88000000D02*
X112000000Y-94500000D01*
%TO.N,Net-(R23-Pad1)*%
X109000000Y-71000000D02*
X110500000Y-72500000D01*
X119920000Y-65080000D02*
X119920000Y-63500000D01*
X112500000Y-72500000D02*
X119920000Y-65080000D01*
X110500000Y-72500000D02*
X112500000Y-72500000D01*
%TO.N,Net-(R24-Pad1)*%
X110500000Y-119000000D02*
X112500000Y-119000000D01*
X112500000Y-119000000D02*
X118840000Y-112660000D01*
X109000000Y-117500000D02*
X110500000Y-119000000D01*
X118840000Y-112660000D02*
X118840000Y-111500000D01*
%TO.N,Net-(R26-Pad1)*%
X149420000Y-37000000D02*
X143500000Y-37000000D01*
X140000000Y-40500000D02*
X140000000Y-47500000D01*
X143500000Y-37000000D02*
X140000000Y-40500000D01*
%TO.N,Net-(R27-Pad1)*%
X140000000Y-87000000D02*
X140000000Y-94500000D01*
X143000000Y-84000000D02*
X140000000Y-87000000D01*
X149340000Y-84000000D02*
X143000000Y-84000000D01*
%TO.N,Net-(R28-Pad2)*%
X149000000Y-41000000D02*
X142500000Y-47500000D01*
X149420000Y-41000000D02*
X149000000Y-41000000D01*
%TO.N,Net-(R30-Pad1)*%
X142000000Y-73000000D02*
X143500000Y-73000000D01*
X150000000Y-66500000D02*
X150000000Y-64000000D01*
X143500000Y-73000000D02*
X150000000Y-66500000D01*
X140000000Y-71000000D02*
X142000000Y-73000000D01*
%TO.N,Net-(R35-Pad1)*%
X173500000Y-83500000D02*
X169500000Y-87500000D01*
X177840000Y-83500000D02*
X173500000Y-83500000D01*
X169500000Y-87500000D02*
X169500000Y-94500000D01*
%TO.N,Net-(R37-Pad2)*%
X172000000Y-93500000D02*
X178000000Y-87500000D01*
X172000000Y-94500000D02*
X172000000Y-93500000D01*
%TO.N,Net-(R38-Pad1)*%
X177340000Y-68160000D02*
X177340000Y-66500000D01*
X169500000Y-72000000D02*
X170500000Y-73000000D01*
X169500000Y-71000000D02*
X169500000Y-72000000D01*
X170500000Y-73000000D02*
X172500000Y-73000000D01*
X172500000Y-73000000D02*
X177340000Y-68160000D01*
%TO.N,Net-(C14-Pad1)*%
X199500000Y-77500000D02*
X199500000Y-78880000D01*
X199500000Y-78880000D02*
X194380000Y-84000000D01*
%TO.N,Net-(C14-Pad2)*%
X202000000Y-78000000D02*
X201500000Y-77500000D01*
X202000000Y-84000000D02*
X202000000Y-78000000D01*
%TO.N,Net-(C15-Pad1)*%
X198500000Y-66000000D02*
X192000000Y-66000000D01*
X198500000Y-59887500D02*
X198500000Y-66000000D01*
%TO.N,Net-(C15-Pad2)*%
X200500000Y-67500000D02*
X196500000Y-71500000D01*
X200500000Y-66000000D02*
X200500000Y-67500000D01*
%TO.N,Net-(C16-Pad1)*%
X203500000Y-59887500D02*
X203500000Y-62000000D01*
X203500000Y-62000000D02*
X203000000Y-62500000D01*
X201000000Y-59887500D02*
X203500000Y-59887500D01*
X203000000Y-66500000D02*
X206000000Y-69500000D01*
X203000000Y-62500000D02*
X203000000Y-66500000D01*
%TO.N,Net-(R1-Pad1)*%
X49000000Y-40500000D02*
X53000000Y-36500000D01*
X53000000Y-36500000D02*
X58500000Y-36500000D01*
X49000000Y-47500000D02*
X49000000Y-40500000D01*
%TO.N,Net-(R5-Pad2)*%
X58500000Y-87500000D02*
X51500000Y-94500000D01*
%TO.N,Net-(R7-Pad1)*%
X49000000Y-71000000D02*
X51000000Y-73000000D01*
X51000000Y-73000000D02*
X52500000Y-73000000D01*
X52500000Y-73000000D02*
X58420000Y-67080000D01*
X58420000Y-67080000D02*
X58420000Y-63500000D01*
%TO.N,Net-(R10-Pad1)*%
X89000000Y-37000000D02*
X83000000Y-37000000D01*
X83000000Y-37000000D02*
X79000000Y-41000000D01*
X79000000Y-41000000D02*
X79000000Y-47500000D01*
%TO.N,Net-(R14-Pad2)*%
X81500000Y-94420000D02*
X81500000Y-94500000D01*
X87920000Y-88000000D02*
X81500000Y-94420000D01*
%TO.N,Net-(R16-Pad1)*%
X88000000Y-65984925D02*
X88000000Y-63500000D01*
X81484925Y-72500000D02*
X88000000Y-65984925D01*
X80500000Y-72500000D02*
X81484925Y-72500000D01*
X79000000Y-71000000D02*
X80500000Y-72500000D01*
%TO.N,Net-(R19-Pad1)*%
X109000000Y-41500000D02*
X109000000Y-47500000D01*
X119000000Y-37000000D02*
X113500000Y-37000000D01*
X113500000Y-37000000D02*
X109000000Y-41500000D01*
%TO.N,Net-(R21-Pad2)*%
X118840000Y-41000000D02*
X118000000Y-41000000D01*
X118000000Y-41000000D02*
X111500000Y-47500000D01*
%TO.N,Net-(R29-Pad2)*%
X149500000Y-88000000D02*
X143000000Y-94500000D01*
X143000000Y-94500000D02*
X142500000Y-94500000D01*
%TO.N,Net-(R31-Pad1)*%
X148840000Y-113660000D02*
X148840000Y-111500000D01*
X143500000Y-119000000D02*
X148840000Y-113660000D01*
X140000000Y-117500000D02*
X141500000Y-119000000D01*
X141500000Y-119000000D02*
X143500000Y-119000000D01*
%TO.N,Net-(R33-Pad2)*%
X192000000Y-76160000D02*
X192000000Y-89240000D01*
X192000000Y-89240000D02*
X194380000Y-91620000D01*
%TO.N,Net-(R34-Pad1)*%
X174000000Y-37000000D02*
X169500000Y-41500000D01*
X178420000Y-37000000D02*
X174000000Y-37000000D01*
X169500000Y-41500000D02*
X169500000Y-47500000D01*
%TO.N,Net-(R36-Pad2)*%
X172000000Y-47420000D02*
X172000000Y-47500000D01*
X178420000Y-41000000D02*
X172000000Y-47420000D01*
%TO.N,Net-(R39-Pad1)*%
X171000000Y-119000000D02*
X173000000Y-119000000D01*
X173000000Y-119000000D02*
X177840000Y-114160000D01*
X177840000Y-114160000D02*
X177840000Y-112000000D01*
X169500000Y-117500000D02*
X171000000Y-119000000D01*
%TD*%
M02*
