M48
; DRILL file {KiCad 8.0.7} date 2025-01-19T09:45:15-0500
; FORMAT={-:-/ absolute / inch / decimal}
; #@! TF.CreationDate,2025-01-19T09:45:15-05:00
; #@! TF.GenerationSoftware,Kicad,Pcbnew,8.0.7
; #@! TF.FileFunction,Plated,1,2,PTH
FMAT,2
INCH
; #@! TA.AperFunction,Plated,PTH,ViaDrill
T1C0.0118
; #@! TA.AperFunction,Plated,PTH,ComponentDrill
T2C0.0236
; #@! TA.AperFunction,Plated,PTH,ComponentDrill
T3C0.0315
; #@! TA.AperFunction,Plated,PTH,ComponentDrill
T4C0.0354
; #@! TA.AperFunction,Plated,PTH,ComponentDrill
T5C0.0394
; #@! TA.AperFunction,Plated,PTH,ComponentDrill
T6C0.0709
; #@! TA.AperFunction,Plated,PTH,ComponentDrill
T7C0.1969
%
G90
G05
T1
X1.9685Y-2.3425
X1.9882Y-4.3701
X2.9724Y-3.8583
X3.1496Y-2.3425
X3.1496Y-4.4094
X4.2323Y-4.311
X4.3307Y-4.4094
X4.3504Y-2.3425
X5.4724Y-3.937
X5.5709Y-2.3425
X5.5709Y-4.4488
X6.6142Y-3.9173
X6.7126Y-2.3425
X6.7126Y-4.4291
X7.5197Y-3.8976
X8.2087Y-3.1102
T2
X2.3622Y-1.8701
X2.4016Y-3.7205
X2.4606Y-1.8701
X2.5Y-3.7205
X3.563Y-3.7402
X3.5827Y-1.8701
X3.6614Y-3.7402
X3.6811Y-1.8701
X4.7638Y-3.7795
X4.7835Y-1.8898
X4.8622Y-3.7795
X4.8819Y-1.8898
X5.9843Y-1.8701
X5.9843Y-3.7402
X6.0827Y-1.8701
X6.0827Y-3.7402
X7.126Y-1.8898
X7.126Y-3.7598
X7.2244Y-1.8898
X7.2244Y-3.7598
T3
X2.2575Y-4.3898
X2.3Y-2.5
X2.3031Y-1.437
X2.3031Y-1.5945
X2.3031Y-3.2874
X2.3031Y-3.4449
X2.3575Y-4.5472
X2.4016Y-2.6575
X2.6575Y-4.3898
X2.6575Y-4.5472
X2.6969Y-1.7913
X2.6969Y-1.8701
X2.6969Y-3.6417
X2.6969Y-3.7205
X2.7Y-2.5
X2.7016Y-2.6575
X2.7031Y-1.437
X2.7031Y-1.5945
X2.7031Y-3.2874
X2.7031Y-3.4449
X3.4583Y-3.3071
X3.4614Y-3.4646
X3.4646Y-2.5
X3.4976Y-1.5945
X3.4976Y-4.3898
X3.5039Y-1.4567
X3.5583Y-2.6575
X3.5976Y-4.5472
X3.8583Y-2.6575
X3.8583Y-3.3071
X3.8583Y-3.6614
X3.8583Y-3.7402
X3.8614Y-3.4646
X3.8646Y-2.5
X3.8976Y-1.5945
X3.8976Y-1.7913
X3.8976Y-1.8701
X3.8976Y-4.3898
X3.8976Y-4.5472
X3.9039Y-1.4567
X4.6591Y-3.3071
X4.6654Y-3.4646
X4.6787Y-1.6142
X4.6787Y-4.3898
X4.685Y-1.4567
X4.7213Y-2.5
X4.7787Y-4.5472
X4.8181Y-2.6378
X5.0591Y-3.3071
X5.0591Y-3.7008
X5.0591Y-3.7795
X5.0654Y-3.4646
X5.0787Y-1.6142
X5.0787Y-1.811
X5.0787Y-1.8898
X5.0787Y-4.3898
X5.0787Y-4.5472
X5.085Y-1.4567
X5.1181Y-2.6378
X5.1213Y-2.5
X5.8598Y-4.3898
X5.8795Y-3.3071
X5.8827Y-1.4567
X5.8827Y-1.6142
X5.8858Y-3.4646
X5.9055Y-2.5197
X5.9598Y-4.5472
X5.9992Y-2.6772
X6.2598Y-4.3898
X6.2598Y-4.5472
X6.2795Y-1.7913
X6.2795Y-1.8701
X6.2795Y-3.3071
X6.2795Y-3.6614
X6.2795Y-3.7402
X6.2827Y-1.4567
X6.2827Y-1.6142
X6.2858Y-3.4646
X6.2992Y-2.6772
X6.3055Y-2.5197
X6.9819Y-2.6181
X7.0016Y-3.2874
X7.0016Y-4.4094
X7.0079Y-3.4449
X7.0244Y-1.4567
X7.0244Y-1.6142
X7.0744Y-2.7756
X7.0941Y-4.5472
X7.3744Y-2.7756
X7.3819Y-2.6181
X7.3941Y-4.5472
X7.4016Y-3.2874
X7.4016Y-3.6811
X7.4016Y-3.7598
X7.4016Y-4.4094
X7.4079Y-3.4449
X7.4213Y-1.811
X7.4213Y-1.8898
X7.4244Y-1.4567
X7.4244Y-1.6142
X7.5591Y-2.5984
X7.5591Y-2.9984
X7.6528Y-3.3071
X7.6528Y-3.4071
X7.6528Y-3.5071
X7.6528Y-3.6071
X7.815Y-2.5984
X7.815Y-3.8976
X7.815Y-4.0717
X7.815Y-4.4717
X7.8543Y-3.0512
X7.8937Y-2.5984
X7.8937Y-3.8976
X7.9331Y-3.0512
X7.9528Y-3.3071
X7.9528Y-3.4071
X7.9528Y-3.5071
X7.9528Y-3.6071
X8.1102Y-2.7362
X8.1102Y-2.8346
X8.1299Y-3.563
X8.1299Y-3.963
T4
X2.1153Y-2.0472
X2.1244Y-3.8976
X2.2153Y-2.0472
X2.2244Y-3.8976
X3.3055Y-2.0472
X3.3055Y-3.8976
X3.4055Y-2.0472
X3.4055Y-3.8976
X4.4866Y-2.0472
X4.4866Y-3.8976
X4.5866Y-2.0472
X4.5866Y-3.8976
X5.7071Y-3.8976
X5.7087Y-2.0472
X5.8071Y-3.8976
X5.8087Y-2.0472
X6.8685Y-3.8976
X6.8701Y-2.0472
X6.9685Y-3.8976
X6.9701Y-2.0472
T5
X1.8307Y-1.8701
X1.8307Y-2.7953
X1.8307Y-3.7205
X1.8307Y-4.626
X1.9291Y-1.8701
X1.9291Y-2.7953
X1.9291Y-3.7205
X1.9291Y-4.626
X2.0276Y-1.8701
X2.0276Y-2.7953
X2.0276Y-3.7205
X2.0276Y-4.626
X3.0118Y-1.8701
X3.0118Y-2.7953
X3.0118Y-3.7205
X3.0118Y-4.626
X3.1102Y-1.8701
X3.1102Y-2.7953
X3.1102Y-3.7205
X3.1102Y-4.626
X3.2087Y-1.8701
X3.2087Y-2.7953
X3.2087Y-3.7205
X3.2087Y-4.626
X4.1929Y-1.8701
X4.1929Y-2.7953
X4.1929Y-3.7205
X4.1929Y-4.626
X4.2913Y-1.8701
X4.2913Y-2.7953
X4.2913Y-3.7205
X4.2913Y-4.626
X4.3898Y-1.8701
X4.3898Y-2.7953
X4.3898Y-3.7205
X4.3898Y-4.626
X5.4134Y-1.8701
X5.4134Y-2.7953
X5.4134Y-3.7205
X5.4134Y-4.626
X5.5118Y-1.8701
X5.5118Y-2.7953
X5.5118Y-3.7205
X5.5118Y-4.626
X5.6102Y-1.8701
X5.6102Y-2.7953
X5.6102Y-3.7205
X5.6102Y-4.626
X6.5748Y-1.8701
X6.5748Y-2.7953
X6.5748Y-3.7205
X6.5748Y-4.626
X6.6732Y-1.8701
X6.6732Y-2.7953
X6.6732Y-3.7205
X6.6732Y-4.626
X6.7717Y-1.8701
X6.7717Y-2.7953
X6.7717Y-3.7205
X6.7717Y-4.626
X7.7362Y-2.815
X7.815Y-2.3578
X7.9134Y-2.3578
X8.0118Y-2.3578
X8.0906Y-2.5394
X8.1496Y-4.3701
X8.1496Y-4.6063
T6
X1.7402Y-1.5748
X1.7402Y-2.5
X1.7402Y-3.4252
X1.7402Y-4.3307
X2.1181Y-1.5748
X2.1181Y-2.5
X2.1181Y-3.4252
X2.1181Y-4.3307
X2.9213Y-1.5748
X2.9213Y-2.5
X2.9213Y-3.4252
X2.9213Y-4.3307
X3.2992Y-1.5748
X3.2992Y-2.5
X3.2992Y-3.4252
X3.2992Y-4.3307
X4.1024Y-1.5748
X4.1024Y-2.5
X4.1024Y-3.4252
X4.1024Y-4.3307
X4.4803Y-1.5748
X4.4803Y-2.5
X4.4803Y-3.4252
X4.4803Y-4.3307
X5.3228Y-1.5748
X5.3228Y-2.5
X5.3228Y-3.4252
X5.3228Y-4.3307
X5.7008Y-1.5748
X5.7008Y-2.5
X5.7008Y-3.4252
X5.7008Y-4.3307
X6.4843Y-1.5748
X6.4843Y-2.5
X6.4843Y-3.4252
X6.4843Y-4.3307
X6.8622Y-1.5748
X6.8622Y-2.5
X6.8622Y-3.4252
X6.8622Y-4.3307
X7.7244Y-2.0625
X8.1024Y-2.0625
T7
X7.3228Y-2.2835
M30
